<svg width="42" height="42" viewBox="0 0 42 42" fill="none" xmlns="http://www.w3.org/2000/svg">
<path d="M19.4167 2.01912C19.1539 2.0202 18.8912 2.05596 18.6356 2.11943C17.8549 2.31683 17.1721 2.77739 16.6976 3.42436C16.2368 4.05047 15.9978 4.80745 16.0012 5.61893C16.0132 8.55271 17.1288 15.8317 17.1408 18.7655C16.9046 18.5168 15.5798 17.5227 15.3436 17.274C14.6698 16.5624 13.8246 16.1913 12.9186 16.1951C12.5106 16.1967 12.1028 16.2747 11.6954 16.4289C10.342 16.9408 9.44846 18.2831 9.4684 19.7742C9.47915 20.7105 9.82847 21.5691 10.4814 22.26C11.4052 23.2341 12.3221 24.2083 13.2459 25.1894L14.3087 26.3156L15.038 27.0894C15.7118 27.801 16.3786 28.5127 17.0524 29.2174C17.7261 29.929 18.5853 30.307 19.5327 30.3031C19.5535 30.303 19.5811 30.3029 19.6019 30.3028C20.2519 30.2863 21.2054 30.0743 22.0592 29.1483C22.8304 28.3129 23.6222 27.4634 24.3796 26.6419C24.6826 26.3147 24.9855 25.9875 25.2885 25.6672C25.5983 25.333 25.9151 24.9918 26.2318 24.6576C26.9893 23.843 27.7742 23.0006 28.5385 22.1652C29.4886 21.1348 29.7597 19.7742 29.277 18.4307C28.7873 17.0733 27.5179 16.156 26.1071 16.1549L26.0863 16.1549C25.125 16.1589 24.2621 16.5439 23.5943 17.268C23.367 17.5116 21.4828 18.5218 21.2556 18.7655L22.8689 5.68787C22.8682 5.50755 22.8606 5.34112 22.8392 5.17475C22.7527 4.31507 22.3552 3.52602 21.7304 2.93904C21.0847 2.33827 20.2673 2.01564 19.4167 2.01912Z" fill="white"/>
<path d="M34.5558 31.4382L34.5737 35.7928C34.5793 37.1581 33.4807 38.2689 32.1193 38.2745L6.88772 38.3779C5.52639 38.3835 4.4187 37.2817 4.41311 35.9164L4.39478 31.4441" stroke="white" stroke-width="2" stroke-miterlimit="10" stroke-linecap="round"/>
</svg>
