<svg width="41" height="42" viewBox="0 0 41 42" fill="none" xmlns="http://www.w3.org/2000/svg">
<g clip-path="url(#clip0_0_159)">
<path fill-rule="evenodd" clip-rule="evenodd" d="M15.7065 25.3137L29.8746 32.5999C29.9414 32.6344 30.0155 32.6322 30.0796 32.5952L31.5164 31.7656C31.576 31.7313 31.6129 31.6754 31.6217 31.6095C31.6304 31.5435 31.6093 31.4787 31.5615 31.4312L21.7759 21.6614C21.7071 21.5916 21.6037 21.5782 21.5182 21.6276L15.7003 24.9398C15.6301 24.9804 15.5908 25.0498 15.5923 25.1301C15.593 25.2088 15.6365 25.2771 15.7065 25.3137ZM14.6142 23.4218L15.3883 7.5088C15.3918 7.43373 15.4307 7.37067 15.4948 7.33364L16.9316 6.5041C16.9912 6.46972 17.0581 6.46562 17.1195 6.49101C17.181 6.51639 17.2266 6.56718 17.2439 6.63231L20.8137 19.9948C20.8397 20.0893 20.7996 20.1855 20.7141 20.2349L14.9367 23.6172C14.8665 23.6577 14.7867 23.6571 14.718 23.6156C14.6483 23.5726 14.6118 23.5023 14.6142 23.4218Z" fill="#021689"/>
<path fill-rule="evenodd" clip-rule="evenodd" d="M28.126 17.5467L34.7933 19.1402C34.8516 19.1532 34.9065 19.1459 34.9584 19.1159L35.6714 18.7042C35.7386 18.6655 35.7797 18.5991 35.7839 18.5216C35.788 18.4442 35.7554 18.3737 35.6928 18.3287L31.548 15.293C31.4746 15.24 31.382 15.2346 31.3026 15.2805L28.0646 17.1336C27.9837 17.1804 27.9407 17.2681 27.9532 17.3603C27.9706 17.4538 28.0363 17.5254 28.126 17.5467ZM27.4529 16.3808L29.4056 9.80852C29.4235 9.75147 29.4573 9.70764 29.5092 9.67767L30.2223 9.26599C30.2894 9.2272 30.3674 9.22478 30.4366 9.25994C30.5058 9.2951 30.5505 9.35854 30.5582 9.43529L31.1148 14.5426C31.124 14.6327 31.0823 14.7156 31.0029 14.7614L27.779 16.639C27.6981 16.6857 27.6006 16.6791 27.527 16.6221C27.4556 16.5619 27.4265 16.4691 27.4529 16.3808Z" fill="#021689"/>
<path fill-rule="evenodd" clip-rule="evenodd" d="M29.4544 14.9391C29.4697 14.9303 29.4849 14.9214 29.5002 14.9126C29.5201 14.9012 29.5399 14.8897 29.5598 14.8783C29.5796 14.8668 29.5995 14.8553 29.6193 14.8439L29.6789 14.8095C29.6987 14.798 29.7186 14.7866 29.7384 14.7751C29.7583 14.7636 29.7781 14.7522 29.798 14.7407C29.8178 14.7293 29.8377 14.7178 29.856 14.7072C29.8957 14.6843 29.9339 14.6623 29.972 14.6402C29.9919 14.6288 30.0102 14.6182 30.03 14.6067C30.0499 14.5953 30.0682 14.5847 30.0881 14.5732C30.1262 14.5512 30.1644 14.5292 30.2035 14.5086C30.2218 14.4981 30.2416 14.4866 30.2608 14.4775C30.2792 14.467 30.299 14.4555 30.3182 14.4464C30.3365 14.4359 30.3557 14.4268 30.3756 14.4154C30.3939 14.4048 30.4131 14.3957 30.4314 14.3851C30.469 14.3655 30.5065 14.3459 30.544 14.3262C30.5632 14.3172 30.5815 14.3066 30.6007 14.2975C30.6199 14.2885 30.6383 14.2779 30.6559 14.2697C30.6919 14.251 30.7303 14.2329 30.7672 14.2156C30.7849 14.2075 30.8041 14.1984 30.8218 14.1902C30.8394 14.182 30.8586 14.173 30.8763 14.1648C30.894 14.1566 30.9132 14.1476 30.9309 14.1394C30.9485 14.1312 30.9662 14.1231 30.9848 14.1164C31.0024 14.1082 31.021 14.1016 31.0387 14.0934C31.0563 14.0852 31.0749 14.0786 31.0926 14.0704C31.1111 14.0637 31.1288 14.0556 31.1458 14.0498C31.1644 14.0432 31.1805 14.0359 31.1991 14.0292C31.2176 14.0226 31.2347 14.0168 31.2532 14.0101C31.2702 14.0044 31.2888 13.9977 31.3058 13.9919C31.3228 13.9862 31.3414 13.9795 31.3584 13.9737C31.3755 13.968 31.3925 13.9622 31.4104 13.9579C31.4274 13.9522 31.4453 13.9479 31.4623 13.9421C31.4973 13.9321 31.5307 13.923 31.5665 13.9145C31.5844 13.9102 31.6008 13.9069 31.6187 13.9026C31.6872 13.8874 31.7552 13.8746 31.8218 13.8665C31.839 13.8647 31.8563 13.8628 31.8712 13.8604C31.9041 13.8575 31.9387 13.8539 31.971 13.8534C32.4691 13.8276 32.7786 13.9229 32.8931 14.1389C32.9927 14.329 32.9407 14.6127 32.7251 14.9868C32.7086 15.0146 32.6905 15.0433 32.674 15.0711C32.656 15.0998 32.637 15.1269 32.6181 15.1541C32.6079 15.1681 32.5976 15.1821 32.5881 15.1938C32.5463 15.2483 32.5027 15.2999 32.4553 15.3516C32.4426 15.365 32.4315 15.3775 32.4189 15.3909C32.3951 15.4168 32.369 15.442 32.3429 15.4672C32.3302 15.4806 32.3167 15.4925 32.3032 15.5043C32.2897 15.5162 32.2771 15.5296 32.2635 15.5415C32.25 15.5533 32.2365 15.5652 32.2215 15.5779C32.208 15.5898 32.1929 15.6025 32.1794 15.6144C32.1659 15.6262 32.1509 15.639 32.1358 15.6517C32.1208 15.6645 32.1064 15.6748 32.0914 15.6875C32.0763 15.7003 32.0619 15.7106 32.0469 15.7234C32.0319 15.7361 32.0159 15.7473 32 15.7585C31.9841 15.7698 31.9691 15.7825 31.9532 15.7937C31.9372 15.8049 31.9222 15.8177 31.9063 15.8289C31.8904 15.8401 31.8744 15.8513 31.857 15.8634C31.8411 15.8747 31.8236 15.8868 31.8077 15.898C31.7918 15.9092 31.7744 15.9213 31.7584 15.9325C31.7251 15.9558 31.6908 15.9776 31.656 16.0018C31.6385 16.0139 31.6217 16.0236 31.6043 16.0357C31.5868 16.0478 31.5685 16.0584 31.5511 16.0705C31.5153 16.0932 31.4795 16.1159 31.4438 16.1385C31.4254 16.1491 31.408 16.1612 31.3897 16.1718C31.3714 16.1824 31.3539 16.1945 31.3341 16.2059C31.3157 16.2165 31.2983 16.2286 31.2784 16.2401C31.2601 16.2507 31.2403 16.2621 31.2228 16.2742C31.1847 16.2963 31.1474 16.3198 31.1092 16.3419C31.0893 16.3533 31.071 16.3639 31.0512 16.3754C31.0313 16.3868 31.013 16.3974 30.9931 16.4089C30.955 16.4309 30.9153 16.4538 30.8771 16.4759C30.8572 16.4873 30.8374 16.4988 30.8191 16.5094C30.7992 16.5208 30.7794 16.5323 30.7595 16.5437C30.7397 16.5552 30.7198 16.5667 30.7 16.5781L30.6404 16.6125C30.6206 16.624 30.6007 16.6354 30.5809 16.6469C30.561 16.6583 30.5412 16.6698 30.5213 16.6813C30.5061 16.6901 30.4908 16.6989 30.4755 16.7077L30.6565 17.0213C30.7866 17.2465 30.7086 17.531 30.4888 17.6721L16.8699 26.292C16.8668 26.2938 16.8653 26.2946 16.8622 26.2964C16.8134 26.3246 16.763 26.3537 16.7141 26.3819C16.6652 26.4101 16.6164 26.4383 16.5675 26.4665C16.5187 26.4948 16.4698 26.523 16.4209 26.5512L16.2744 26.6358C16.2255 26.664 16.1766 26.6922 16.1293 26.7196C16.0804 26.7478 16.0331 26.7751 15.9843 26.8033C15.9354 26.8315 15.8881 26.8588 15.8392 26.8871C15.743 26.9426 15.6468 26.9981 15.5521 27.0528C15.5048 27.0801 15.4575 27.1074 15.4101 27.1348C15.3628 27.1621 15.3155 27.1894 15.2673 27.2152C15.1717 27.2684 15.0786 27.3221 14.9845 27.3744C14.9372 27.4017 14.8905 27.4266 14.8438 27.4516C14.7972 27.4765 14.7498 27.5038 14.7031 27.5287C14.6565 27.5537 14.6106 27.5801 14.564 27.605C14.5173 27.63 14.4706 27.6549 14.4239 27.6798C14.3305 27.7297 14.2387 27.7786 14.1475 27.8252C14.1023 27.8492 14.0548 27.8726 14.0096 27.8967C13.9636 27.9192 13.9184 27.9433 13.8724 27.9658C13.7812 28.0123 13.6906 28.0565 13.5992 28.0991C13.5547 28.1208 13.5087 28.1433 13.4633 28.1634C13.4188 28.1851 13.3734 28.2052 13.328 28.2253C13.2826 28.2454 13.2381 28.267 13.1942 28.2863C13.1488 28.3064 13.105 28.3256 13.0611 28.3449C13.0172 28.3641 12.9725 28.3818 12.9271 28.4019C12.8832 28.4212 12.8385 28.4389 12.7938 28.4566C12.749 28.4743 12.7058 28.4911 12.6611 28.5089C12.6178 28.5257 12.5731 28.5434 12.529 28.5587C12.4858 28.5755 12.4417 28.5909 12.3976 28.6062C12.3535 28.6215 12.311 28.6359 12.2669 28.6512C12.2228 28.6665 12.1802 28.681 12.1368 28.6939C12.0942 28.7083 12.0507 28.7212 12.0073 28.7341C11.9639 28.747 11.9204 28.7599 11.8785 28.7719C11.7931 28.7969 11.7084 28.8194 11.6228 28.8404C11.58 28.8509 11.5388 28.8605 11.4951 28.8695C8.35213 29.572 7.25017 27.6633 9.42912 25.2912C9.45808 25.2602 9.4877 25.2269 9.51819 25.1951C9.57918 25.1315 9.64105 25.0694 9.70532 25.0079C9.73822 24.9767 9.76959 24.9464 9.80249 24.9153C9.83539 24.8841 9.86917 24.8544 9.90207 24.8233C9.93585 24.7936 9.97028 24.7616 10.0041 24.7319C10.0394 24.7014 10.0731 24.6717 10.1084 24.6412C10.1438 24.6107 10.1799 24.5817 10.2152 24.5511C10.2514 24.5221 10.2867 24.4916 10.3244 24.4617C10.3606 24.4327 10.3983 24.4028 10.4361 24.3729C10.4738 24.343 10.5124 24.3147 10.5501 24.2848C10.5887 24.2564 10.6264 24.2265 10.6665 24.1973C10.7051 24.1689 10.7452 24.1397 10.7838 24.1113C10.8239 24.082 10.8625 24.0537 10.9035 24.0259C10.9436 23.9967 10.9846 23.969 11.0247 23.9397C11.0657 23.912 11.1058 23.8827 11.1483 23.8541C11.2319 23.7978 11.3154 23.7414 11.4004 23.6842C11.4429 23.6556 11.4864 23.6285 11.5289 23.5999C11.5714 23.5713 11.6148 23.5442 11.6597 23.5163C11.7472 23.4597 11.8355 23.4046 11.9238 23.3496C11.9688 23.3216 12.0137 23.2936 12.0586 23.2657C12.1035 23.2377 12.1485 23.2097 12.1943 23.1833C12.2392 23.1553 12.285 23.1289 12.3315 23.1C12.3764 23.072 12.4237 23.0447 12.4687 23.0167C12.5609 22.9615 12.6547 22.9053 12.7479 22.8515C12.7952 22.8242 12.8425 22.7968 12.889 22.768C12.9363 22.7407 12.9836 22.7133 13.031 22.686C13.1256 22.6314 13.2218 22.5758 13.318 22.5203C13.3654 22.4929 13.4142 22.4647 13.4631 22.4365C13.512 22.4083 13.5593 22.381 13.6081 22.3528C13.657 22.3246 13.7059 22.2964 13.7532 22.269L13.8998 22.1844C13.9486 22.1562 13.9975 22.128 14.0464 22.0998C14.0952 22.0716 14.1441 22.0434 14.1929 22.0151C14.2418 21.9869 14.2907 21.9587 14.3411 21.9296C14.3441 21.9279 14.3456 21.927 14.3487 21.9252L28.6232 14.4408C28.8544 14.3195 29.1398 14.3942 29.2707 14.621L29.4544 14.9391ZM16.8672 26.2874C16.8642 26.2892 16.8626 26.2901 16.8596 26.2918L16.8672 26.2874Z" fill="#021689"/>
</g>
<defs>
<clipPath id="clip0_0_159">
<rect width="29.7653" height="28.9609" fill="white" transform="translate(15.7394 41.1505) rotate(-120)"/>
</clipPath>
</defs>
</svg>
