<svg width="35" height="34" viewBox="0 0 35 34" fill="none" xmlns="http://www.w3.org/2000/svg">
<g clip-path="url(#clip0_0_164)">
<path fill-rule="evenodd" clip-rule="evenodd" d="M17.0163 10.045L2.38373 16.3466C2.31465 16.3762 2.26923 16.4347 2.25702 16.5078L1.98361 18.1442C1.97228 18.212 1.99187 18.276 2.03719 18.3247C2.08251 18.3734 2.14606 18.3983 2.2131 18.3917L15.9757 17.0517C16.0734 17.043 16.1495 16.9717 16.1657 16.8743L17.3088 10.2779C17.3222 10.1979 17.2937 10.1235 17.2307 10.0736C17.1695 10.0241 17.0892 10.0142 17.0163 10.045ZM19.1711 10.405L30.9603 21.1212C31.016 21.1716 31.0399 21.2418 31.0277 21.3148L30.7543 22.9512C30.743 23.019 30.7036 23.0732 30.6449 23.1045C30.5863 23.1358 30.5181 23.1388 30.4568 23.1107L17.8739 17.3688C17.7843 17.3288 17.7356 17.2367 17.7519 17.1393L18.8152 10.5296C18.8286 10.4496 18.8798 10.3885 18.9555 10.3618C19.033 10.3354 19.1104 10.3519 19.1711 10.405Z" fill="#021689"/>
<path fill-rule="evenodd" clip-rule="evenodd" d="M15.1135 24.5691L9.64405 28.7015C9.59692 28.7383 9.56769 28.7852 9.55781 28.8444L9.42212 29.6565C9.40934 29.733 9.43441 29.8069 9.49157 29.8594C9.54874 29.9118 9.62385 29.9315 9.69842 29.9118L14.6769 28.6432C14.7645 28.6203 14.8275 28.5522 14.8426 28.4618L15.4713 24.7844C15.4867 24.6922 15.4464 24.6032 15.3672 24.5542C15.284 24.5082 15.1869 24.5134 15.1135 24.5691ZM16.4414 24.7909L20.2721 30.4772C20.3047 30.5273 20.317 30.5813 20.3072 30.6404L20.1715 31.4525C20.1587 31.529 20.111 31.5908 20.0398 31.6218C19.9687 31.6528 19.8913 31.647 19.8272 31.6041L15.5315 28.786C15.4561 28.7359 15.4187 28.651 15.4338 28.5605L16.0347 24.8785C16.0501 24.7863 16.1172 24.7153 16.208 24.6947C16.2999 24.6779 16.39 24.7144 16.4414 24.7909Z" fill="#021689"/>
<path fill-rule="evenodd" clip-rule="evenodd" d="M16.2813 27.2525C16.2784 27.2698 16.2755 27.2872 16.2726 27.3046C16.2688 27.3272 16.2651 27.3498 16.2613 27.3724C16.2575 27.395 16.2537 27.4177 16.2499 27.4403L16.2386 27.5081C16.2348 27.5307 16.2311 27.5533 16.2273 27.5759C16.2235 27.5985 16.2197 27.6211 16.2159 27.6437C16.2122 27.6663 16.2084 27.6889 16.2049 27.7098C16.1974 27.755 16.1901 27.7985 16.1828 27.842C16.179 27.8646 16.1756 27.8854 16.1718 27.9081C16.168 27.9307 16.1645 27.9515 16.1607 27.9741C16.1535 28.0176 16.1462 28.0611 16.1372 28.1043C16.1337 28.1251 16.13 28.1477 16.1247 28.1683C16.1212 28.1892 16.1175 28.2118 16.1122 28.2324C16.1088 28.2532 16.1035 28.2738 16.0998 28.2964C16.0963 28.3173 16.0911 28.3379 16.0876 28.3587C16.0789 28.4002 16.0702 28.4416 16.0615 28.4831C16.0562 28.5037 16.0527 28.5245 16.0475 28.5451C16.0423 28.5657 16.0388 28.5866 16.0339 28.6054C16.0255 28.6451 16.015 28.6863 16.0049 28.7257C16 28.7445 15.9947 28.7651 15.9898 28.7839C15.9849 28.8028 15.9797 28.8234 15.9747 28.8422C15.9698 28.861 15.9646 28.8816 15.9596 28.9005C15.9547 28.9193 15.9498 28.9381 15.9431 28.9567C15.9382 28.9755 15.9315 28.9941 15.9266 29.0129C15.9217 29.0318 15.915 29.0503 15.9101 29.0691C15.9034 29.0877 15.8985 29.1065 15.8921 29.1233C15.8854 29.1419 15.8808 29.159 15.8741 29.1775C15.8675 29.1961 15.8611 29.2129 15.8544 29.2314C15.8481 29.2483 15.8414 29.2668 15.835 29.2836C15.8287 29.3004 15.822 29.319 15.8156 29.3358C15.8093 29.3526 15.8029 29.3694 15.7948 29.3859C15.7884 29.4027 15.7803 29.4193 15.7739 29.4361C15.7595 29.4694 15.7453 29.501 15.7291 29.534C15.7209 29.5506 15.7131 29.5653 15.705 29.5819C15.6732 29.6445 15.6399 29.7051 15.6037 29.7616C15.5942 29.7761 15.5846 29.7906 15.5771 29.8036C15.5583 29.8308 15.5392 29.8598 15.5189 29.8851C15.2221 30.2859 14.9518 30.4642 14.7123 30.4152C14.5022 30.3712 14.3163 30.1507 14.1647 29.7464C14.1538 29.7159 14.1431 29.6838 14.1322 29.6533C14.1215 29.6212 14.1126 29.5893 14.1036 29.5574C14.0993 29.5406 14.095 29.5238 14.0921 29.509C14.0766 29.4421 14.0645 29.3757 14.0547 29.3061C14.0524 29.2879 14.0499 29.2714 14.0476 29.2531C14.0427 29.2183 14.0398 29.1821 14.037 29.1459C14.0347 29.1276 14.0341 29.1096 14.0336 29.0917C14.033 29.0737 14.0307 29.0554 14.0301 29.0375C14.0296 29.0195 14.029 29.0015 14.0287 28.9818C14.0282 28.9639 14.0279 28.9441 14.0274 28.9262C14.0268 28.9082 14.0265 28.8885 14.0262 28.8688C14.026 28.8491 14.0271 28.8314 14.0269 28.8117C14.0266 28.792 14.0278 28.7743 14.0275 28.7546C14.0272 28.7349 14.0287 28.7155 14.0302 28.6961C14.0316 28.6766 14.0314 28.6569 14.0328 28.6375C14.0343 28.6181 14.034 28.5984 14.0355 28.579C14.0369 28.5595 14.0384 28.5401 14.0402 28.519C14.0416 28.4995 14.0434 28.4784 14.0448 28.459C14.0463 28.4396 14.048 28.4184 14.0495 28.399C14.0527 28.3584 14.0577 28.3181 14.0612 28.2758C14.0629 28.2546 14.0661 28.2355 14.0679 28.2144C14.0696 28.1932 14.0731 28.1723 14.0749 28.1512C14.0801 28.1091 14.0854 28.0671 14.0906 28.0251C14.0941 28.0042 14.0958 27.9831 14.0993 27.9622C14.1028 27.9413 14.1046 27.9202 14.1083 27.8976C14.1118 27.8767 14.1136 27.8555 14.1174 27.8329C14.1208 27.8121 14.1246 27.7895 14.1264 27.7683C14.1336 27.7248 14.1392 27.6811 14.1464 27.6376C14.1502 27.615 14.1537 27.5941 14.1575 27.5715C14.1612 27.5489 14.1647 27.528 14.1685 27.5054C14.1758 27.4619 14.1833 27.4167 14.1906 27.3733C14.1944 27.3506 14.1981 27.328 14.2016 27.3072C14.2054 27.2846 14.2092 27.262 14.213 27.2394C14.2167 27.2167 14.2205 27.1941 14.2243 27.1715L14.2356 27.1037C14.2394 27.0811 14.2432 27.0585 14.247 27.0359C14.2507 27.0133 14.2545 26.9907 14.2583 26.9681C14.2612 26.9507 14.2641 26.9333 14.267 26.9159L13.9099 26.8562C13.6534 26.8134 13.4834 26.5722 13.5142 26.3128L15.5216 10.3207C15.5222 10.3173 15.5225 10.3155 15.523 10.3121C15.5323 10.2564 15.5419 10.199 15.5512 10.1434C15.5605 10.0877 15.5698 10.0321 15.5791 9.97642C15.5884 9.92077 15.5977 9.86513 15.607 9.80948L15.6349 9.64253C15.6442 9.58689 15.6535 9.53124 15.6625 9.47733C15.6718 9.42168 15.6808 9.36777 15.6901 9.31212C15.6994 9.25647 15.7084 9.20257 15.7177 9.14692C15.736 9.03736 15.7543 8.9278 15.7723 8.81998C15.7813 8.76608 15.7903 8.71217 15.7994 8.65826C15.8084 8.60435 15.8174 8.55044 15.8281 8.49682C15.8479 8.38929 15.8656 8.28321 15.885 8.17742C15.894 8.12351 15.9045 8.07163 15.9149 8.01975C15.9254 7.96787 15.9344 7.91396 15.9449 7.86208C15.9553 7.8102 15.964 7.75803 15.9745 7.70615C15.9849 7.65427 15.9954 7.60239 16.0058 7.55051C16.0267 7.44675 16.0473 7.34473 16.0694 7.24473C16.0795 7.19459 16.0917 7.143 16.1019 7.09286C16.1138 7.04301 16.1239 6.99287 16.1358 6.94301C16.1579 6.84302 16.1814 6.74506 16.2066 6.64738C16.2182 6.59927 16.2301 6.54942 16.2434 6.50159C16.255 6.45348 16.2684 6.40566 16.2817 6.35783C16.2951 6.31001 16.3067 6.2619 16.3197 6.21581C16.333 6.16799 16.3461 6.12191 16.3591 6.07582C16.3722 6.02974 16.387 5.98394 16.4003 5.93612C16.4133 5.89003 16.4281 5.84424 16.4429 5.79845C16.4577 5.75265 16.4722 5.7086 16.4869 5.6628C16.5014 5.61875 16.5162 5.57295 16.5324 5.52918C16.5469 5.48513 16.5631 5.44136 16.5794 5.3976C16.5956 5.35383 16.6115 5.3118 16.6277 5.26804C16.644 5.22427 16.6599 5.18225 16.6776 5.14051C16.6935 5.09848 16.7111 5.05674 16.7288 5.01501C16.7465 4.97327 16.7641 4.93153 16.7815 4.89153C16.8166 4.8098 16.853 4.73009 16.8913 4.65067C16.9104 4.61096 16.9292 4.573 16.95 4.53358C18.4064 1.66121 20.5802 2.02441 21.0255 5.2145C21.0309 5.25653 21.0378 5.30058 21.043 5.34435C21.0533 5.43187 21.0619 5.51911 21.0684 5.6078C21.0716 5.65301 21.075 5.69648 21.0781 5.7417C21.0813 5.78691 21.0827 5.83183 21.0858 5.87705C21.0872 5.92197 21.0901 5.96892 21.0915 6.01384C21.0926 6.06051 21.094 6.10543 21.0951 6.15209C21.0962 6.19875 21.0956 6.24513 21.0967 6.29179C21.0961 6.33816 21.0972 6.38482 21.0963 6.43294C21.0957 6.47931 21.0948 6.52742 21.0938 6.57553C21.0929 6.62364 21.0903 6.67147 21.0894 6.71958C21.0867 6.7674 21.0858 6.81551 21.0829 6.86507C21.0802 6.91289 21.0773 6.96246 21.0747 7.01028C21.0717 7.05984 21.0691 7.10766 21.0644 7.15693C21.0615 7.20649 21.0568 7.25576 21.0539 7.30533C21.0492 7.3546 21.0463 7.40416 21.0413 7.45517C21.0317 7.55545 21.0221 7.65573 21.0121 7.75775C21.0072 7.80876 21.0005 7.85948 20.9955 7.91049C20.9906 7.9615 20.9839 8.01223 20.9769 8.06468C20.9649 8.16815 20.9513 8.27134 20.9376 8.37452C20.9306 8.42698 20.9236 8.47944 20.9166 8.5319C20.9097 8.58435 20.9027 8.63681 20.894 8.68898C20.887 8.74144 20.8783 8.79361 20.871 8.84781C20.864 8.90027 20.855 8.95418 20.848 9.00664C20.832 9.11301 20.8157 9.22112 20.798 9.3272C20.789 9.38111 20.78 9.43502 20.7727 9.48922C20.7637 9.54312 20.7547 9.59703 20.7457 9.65094C20.7277 9.75876 20.7094 9.86832 20.6911 9.97788C20.6821 10.0318 20.6728 10.0874 20.6635 10.1431C20.6542 10.1987 20.6452 10.2526 20.6359 10.3083C20.6266 10.3639 20.6173 10.4196 20.6083 10.4735L20.5804 10.6404C20.5711 10.6961 20.5618 10.7517 20.5525 10.8074C20.5432 10.863 20.5339 10.9187 20.5246 10.9743C20.5153 11.03 20.506 11.0856 20.4964 11.143C20.4958 11.1465 20.4955 11.1482 20.495 11.1517L17.1944 26.9277C17.141 27.1834 16.9019 27.3561 16.6436 27.313L16.2813 27.2525ZM15.5268 10.3216C15.5274 10.3181 15.5277 10.3164 15.5282 10.3129L15.5268 10.3216Z" fill="#021689"/>
</g>
<defs>
<clipPath id="clip0_0_164">
<rect width="29.7653" height="28.9609" fill="white" transform="translate(4.77283) rotate(9.48543)"/>
</clipPath>
</defs>
</svg>
