<svg width="38" height="33" viewBox="0 0 38 33" fill="none" xmlns="http://www.w3.org/2000/svg">
<g clip-path="url(#clip0_485_66)">
<g filter="url(#filter0_d_485_66)">
<path d="M20.3942 11.4745C18.038 11.6018 15.9952 11.5763 13.9398 11.589C13.5262 11.589 13.4761 11.7035 13.6766 12.0597C14.04 12.683 14.3784 13.3191 14.7168 13.9552C14.9424 14.3622 14.9048 14.4258 14.4411 14.5022C13.9523 14.5785 13.4635 14.6294 12.9747 14.7184C12.699 14.7693 12.5361 14.693 12.3982 14.4386C11.9345 13.5735 11.4457 12.7212 10.9695 11.8689C10.8567 11.6781 10.8316 11.4873 10.8818 11.271C11.0698 10.4696 11.358 9.6936 11.8092 9.00666C12.5988 7.77272 13.7142 7.0985 15.1555 7.13667C17.9252 7.22572 20.6825 7.14939 23.4522 7.26388C25.1943 7.34021 26.9489 7.42925 28.691 7.36565C30.6336 7.28932 31.9495 8.20524 32.9647 9.75721C34.9449 12.7848 34.8446 16.6775 32.6889 19.5906C32.526 19.8068 32.4634 20.0231 32.4508 20.303C32.2879 24.0557 32.125 27.8084 31.962 31.5611C31.9495 31.9427 31.8242 32.1081 31.4231 32.1081C29.5683 32.0827 27.7009 32.0572 25.846 32.0445C25.5452 32.0445 25.4324 31.9173 25.4199 31.612C25.3322 27.7575 25.3447 23.903 25.3196 20.0485C25.3196 19.6669 25.5076 19.6033 25.8209 19.5906C27.4001 19.5651 28.9667 19.6287 30.5458 19.527C31.0471 19.5015 31.0722 19.4761 30.8341 19.0436C29.5056 16.652 28.1771 14.2732 26.8612 11.8689C26.6857 11.5509 26.4601 11.4745 26.1343 11.4745C24.129 11.4745 22.1112 11.4745 20.3942 11.4745Z" fill="white"/>
<path d="M20.3807 10.9745H20.3942H20.4043H20.4143H20.4244H20.4345H20.4446H20.4547H20.4648H20.4749H20.485H20.4952H20.5053H20.5154H20.5256H20.5357H20.5459H20.556H20.5662H20.5764H20.5866H20.5968H20.607H20.6172H20.6274H20.6376H20.6478H20.6581H20.6683H20.6785H20.6888H20.6991H20.7093H20.7196H20.7299H20.7401H20.7504H20.7607H20.771H20.7813H20.7917H20.802H20.8123H20.8226H20.833H20.8433H20.8537H20.864H20.8744H20.8848H20.8952H20.9055H20.9159H20.9263H20.9367H20.9471H20.9576H20.968H20.9784H20.9888H20.9993H21.0097H21.0202H21.0306H21.0411H21.0516H21.062H21.0725H21.083H21.0935H21.104H21.1145H21.125H21.1355H21.1461H21.1566H21.1671H21.1777H21.1882H21.1988H21.2093H21.2199H21.2305H21.241H21.2516H21.2622H21.2728H21.2834H21.294H21.3046H21.3152H21.3258H21.3365H21.3471H21.3577H21.3684H21.379H21.3897H21.4003H21.411H21.4217H21.4323H21.443H21.4537H21.4644H21.4751H21.4858H21.4965H21.5072H21.518H21.5287H21.5394H21.5501H21.5609H21.5716H21.5824H21.5931H21.6039H21.6147H21.6254H21.6362H21.647H21.6578H21.6686H21.6794H21.6902H21.701H21.7118H21.7226H21.7335H21.7443H21.7551H21.766H21.7768H21.7877H21.7985H21.8094H21.8202H21.8311H21.842H21.8529H21.8637H21.8746H21.8855H21.8964H21.9073H21.9182H21.9292H21.9401H21.951H21.9619H21.9729H21.9838H21.9947H22.0057H22.0166H22.0276H22.0386H22.0495H22.0605H22.0715H22.0825H22.0934H22.1044H22.1154H22.1264H22.1374H22.1484H22.1594H22.1705H22.1815H22.1925H22.2035H22.2146H22.2256H22.2367H22.2477H22.2588H22.2698H22.2809H22.2919H22.303H22.3141H22.3252H22.3363H22.3473H22.3584H22.3695H22.3806H22.3917H22.4028H22.414H22.4251H22.4362H22.4473H22.4585H22.4696H22.4807H22.4919H22.503H22.5142H22.5253H22.5365H22.5477H22.5588H22.57H22.5812H22.5923H22.6035H22.6147H22.6259H22.6371H22.6483H22.6595H22.6707H22.6819H22.6931H22.7044H22.7156H22.7268H22.738H22.7493H22.7605H22.7718H22.783H22.7942H22.8055H22.8168H22.828H22.8393H22.8506H22.8618H22.8731H22.8844H22.8957H22.9069H22.9182H22.9295H22.9408H22.9521H22.9634H22.9747H22.9861H22.9974H23.0087H23.02H23.0313H23.0427H23.054H23.0653H23.0767H23.088H23.0994H23.1107H23.1221H23.1334H23.1448H23.1561H23.1675H23.1789H23.1902H23.2016H23.213H23.2244H23.2358H23.2471H23.2585H23.2699H23.2813H23.2927H23.3041H23.3155H23.327H23.3384H23.3498H23.3612H23.3726H23.3841H23.3955H23.4069H23.4184H23.4298H23.4412H23.4527H23.4641H23.4756H23.487H23.4985H23.5099H23.5214H23.5329H23.5443H23.5558H23.5673H23.5787H23.5902H23.6017H23.6132H23.6247H23.6362H23.6477H23.6591H23.6706H23.6821H23.6936H23.7051H23.7167H23.7282H23.7397H23.7512H23.7627H23.7742H23.7858H23.7973H23.8088H23.8203H23.8319H23.8434H23.8549H23.8665H23.878H23.8896H23.9011H23.9127H23.9242H23.9358H23.9473H23.9589H23.9705H23.982H23.9936H24.0052H24.0167H24.0283H24.0399H24.0515H24.063H24.0746H24.0862H24.0978H24.1094H24.121H24.1326H24.1442H24.1558H24.1673H24.179H24.1906H24.2022H24.2138H24.2254H24.237H24.2486H24.2602H24.2718H24.2835H24.2951H24.3067H24.3183H24.3299H24.3416H24.3532H24.3648H24.3765H24.3881H24.3997H24.4114H24.423H24.4347H24.4463H24.458H24.4696H24.4813H24.4929H24.5046H24.5162H24.5279H24.5395H24.5512H24.5629H24.5745H24.5862H24.5978H24.6095H24.6212H24.6329H24.6445H24.6562H24.6679H24.6796H24.6912H24.7029H24.7146H24.7263H24.738H24.7496H24.7613H24.773H24.7847H24.7964H24.8081H24.8198H24.8315H24.8432H24.8549H24.8666H24.8783H24.89H24.9017H24.9134H24.9251H24.9368H24.9485H24.9602H24.9719H24.9836H24.9953H25.007H25.0188H25.0305H25.0422H25.0539H25.0656H25.0773H25.0891H25.1008H25.1125H25.1242H25.1359H25.1477H25.1594H25.1711H25.1828H25.1946H25.2063H25.218H25.2298H25.2415H25.2532H25.2649H25.2767H25.2884H25.3001H25.3119H25.3236H25.3354H25.3471H25.3588H25.3706H25.3823H25.394H25.4058H25.4175H25.4293H25.441H25.4528H25.4645H25.4762H25.488H25.4997H25.5115H25.5232H25.535H25.5467H25.5585H25.5702H25.582H25.5937H25.6054H25.6172H25.6289H25.6407H25.6524H25.6642H25.6759H25.6877H25.6994H25.7112H25.7229H25.7347H25.7464H25.7582H25.77H25.7817H25.7935H25.8052H25.817H25.8287H25.8405H25.8522H25.864H25.8757H25.8875H25.8992H25.911H25.9227H25.9345H25.9462H25.958H25.9697H25.9815H25.9932H26.005H26.0167H26.0285H26.0403H26.052H26.0638H26.0755H26.0873H26.099H26.1108H26.1225H26.1343C26.33 10.9745 26.5568 10.9961 26.7756 11.1042C27.0052 11.2176 27.1733 11.3995 27.299 11.6274L27.2998 11.6288C28.3391 13.5278 29.3862 15.4106 30.4358 17.298C30.7141 17.7985 30.9926 18.2993 31.2712 18.8008L31.2721 18.8024C31.3288 18.9054 31.391 19.0208 31.4295 19.126C31.4586 19.2054 31.5442 19.4545 31.393 19.7001C31.25 19.9324 31.0026 19.9792 30.9263 19.9933C30.8201 20.0128 30.6922 20.0202 30.5746 20.0262C30.5735 20.0262 30.5723 20.0263 30.5712 20.0263L30.5458 19.527C29.5195 19.5931 28.4984 19.5894 27.4757 19.5857C26.925 19.5837 26.3737 19.5817 25.8209 19.5906L20.3807 10.9745ZM20.3807 10.9745L20.3672 10.9753C18.498 11.0762 16.8305 11.0803 15.1825 11.0844C14.7675 11.0854 14.3536 11.0865 13.9382 11.089M20.3807 10.9745L25.8354 20.0904C25.8301 20.0906 25.8249 20.0909 25.8199 20.0912C25.8266 21.13 25.8306 22.1677 25.8346 23.2047C25.8452 25.9878 25.8559 28.7654 25.9185 31.545C27.7513 31.5579 29.5958 31.583 31.4262 31.6081C31.438 31.6081 31.4488 31.6078 31.4585 31.6074C31.4602 31.5898 31.4615 31.569 31.4623 31.5447L31.4625 31.5394H31.4625L31.9513 20.2813L31.9513 20.2806C31.9673 19.924 32.0529 19.6047 32.2883 19.2915C34.3175 16.5477 34.4122 12.8839 32.5462 10.0309C32.0672 9.29858 31.5356 8.74483 30.921 8.38113C30.3116 8.02055 29.5935 7.83057 28.7106 7.86526L28.7092 7.86532C27.075 7.92498 25.4316 7.85209 23.8209 7.78065C23.6907 7.77488 23.5607 7.76911 23.431 7.76343C22.0566 7.70663 20.6835 7.69709 19.3015 7.69073C19.2024 7.69027 19.1033 7.68983 19.0041 7.68939C17.7229 7.68371 16.4335 7.67799 15.1409 7.63646C13.8982 7.60399 12.9382 8.16988 12.2304 9.27615L12.2271 9.28117L12.2271 9.28115C11.817 9.90556 11.5475 10.6224 11.3687 11.3845C11.346 11.483 11.3565 11.5411 11.3999 11.6145L11.4061 11.6249L11.406 11.625C11.5376 11.8607 11.671 12.0975 11.8049 12.3355C12.1515 12.9511 12.502 13.5739 12.8383 14.2012C12.845 14.2134 12.8508 14.2233 12.8558 14.2312C12.8636 14.2302 12.873 14.2288 12.884 14.2267L12.8851 14.2265C13.1839 14.1721 13.5044 14.1285 13.8104 14.0869C13.9413 14.0691 14.0696 14.0517 14.1923 14.0339C13.8815 13.45 13.5731 12.8749 13.2447 12.3116L13.2408 12.305L13.2409 12.305C13.1847 12.2052 13.1268 12.0898 13.0935 11.9708C13.0615 11.8565 13.029 11.6566 13.1371 11.4548C13.2487 11.2464 13.4403 11.164 13.5643 11.1301C13.6881 11.0964 13.8209 11.0891 13.9382 11.089M13.9382 11.089C13.9387 11.089 13.9392 11.089 13.9398 11.089V11.589M13.9382 11.089C13.9377 11.089 13.9372 11.089 13.9367 11.089L13.9398 11.589M13.9398 11.589C14.3523 11.5865 14.7642 11.5855 15.1784 11.5844C16.8277 11.5804 18.5109 11.5762 20.3942 11.4745L14.3619 14.0085C14.4148 13.9997 14.4559 13.9921 14.4885 13.985C14.5221 13.9776 14.5389 13.9724 14.5449 13.9703C14.552 13.9678 14.5335 13.9732 14.505 13.9932C14.4732 14.0154 14.4271 14.0571 14.3926 14.1244C14.3918 14.1259 14.3911 14.1274 14.3904 14.1288C14.3887 14.1321 14.3871 14.1354 14.3856 14.1387C14.3853 14.1394 14.385 14.1401 14.3847 14.1408L14.4411 14.5022M13.9398 11.589C13.5262 11.589 13.4761 11.7035 13.6766 12.0597C14.04 12.683 14.3784 13.3191 14.7168 13.9551L14.7168 13.9552C14.9424 14.3622 14.9048 14.4258 14.4411 14.5022M14.4411 14.5022C14.2456 14.5327 14.0501 14.5592 13.8546 14.5856C13.5613 14.6253 13.268 14.665 12.9747 14.7184C12.699 14.7693 12.5361 14.693 12.3982 14.4386M14.4411 14.5022L14.3824 14.1458L12.3982 14.4386M12.3982 14.4386C12.0644 13.8157 11.7175 13.1995 11.3717 12.5851C11.2372 12.3462 11.1028 12.1075 10.9695 11.8689C10.8567 11.6781 10.8316 11.4873 10.8818 11.271C11.0698 10.4696 11.358 9.6936 11.8092 9.00666L12.3982 14.4386ZM25.846 32.0445C27.7009 32.0572 29.5683 32.0827 31.4231 32.1081C31.8242 32.1081 31.9495 31.9427 31.962 31.5611L25.846 32.0445ZM25.846 32.0445C25.5452 32.0445 25.4324 31.9173 25.4199 31.612L25.846 32.0445Z" stroke="#021689"/>
</g>
<g filter="url(#filter1_d_485_66)">
<path d="M17.4272 32.0185C14.9111 32.0185 12.3829 32.0058 9.86676 32.0313C9.48334 32.0313 9.33956 31.9034 9.30362 31.4813C9.052 28.8588 8.77642 26.2235 8.50084 23.601C8.39301 22.5904 8.29715 21.567 8.17734 20.5563C8.09346 19.84 8.11743 19.7888 8.77642 19.7888C12.8143 19.7504 16.8641 19.712 20.9019 19.6736C21.4171 19.6736 21.9324 19.6353 22.4476 19.6225C22.7471 19.6097 22.8789 19.7376 22.8909 20.083C22.9987 22.3473 23.1305 24.6116 23.2503 26.8759C23.3342 28.411 23.4301 29.9461 23.5139 31.4813C23.5499 32.0953 23.5139 32.1081 22.9508 32.1081C21.1176 32.1081 19.2724 32.1081 17.4392 32.1081C17.4272 32.0825 17.4272 32.0441 17.4272 32.0185ZM14.935 27.7714C14.8512 28.2319 15.0429 28.3854 15.4622 28.3599C15.9055 28.3471 16.3369 28.3854 16.7802 28.4238C17.0438 28.4494 17.1397 28.3599 17.0917 28.0784C17.0198 27.6307 16.9719 27.1829 16.9 26.7352C16.8401 26.3642 16.8761 26.0828 17.1397 25.7757C17.6908 25.1233 17.6189 24.0231 17.0438 23.4219C16.4927 22.8462 15.4982 22.8334 14.9111 23.3835C14.3 23.9464 14.1442 25.0338 14.6834 25.6606C15.0429 26.07 15.0429 26.4793 15.0069 26.9527C15.0069 27.2213 14.971 27.49 14.935 27.7714Z" fill="white"/>
<path d="M17.9272 31.6081H17.9336H17.9443H17.9551H17.9658H17.9766H17.9874H17.9981H18.0089H18.0196H18.0304H18.0411H18.0519H18.0626H18.0734H18.0841H18.0949H18.1057H18.1164H18.1272H18.1379H18.1487H18.1594H18.1702H18.181H18.1917H18.2025H18.2132H18.224H18.2347H18.2455H18.2563H18.267H18.2778H18.2885H18.2993H18.3101H18.3208H18.3316H18.3423H18.3531H18.3639H18.3746H18.3854H18.3962H18.4069H18.4177H18.4284H18.4392H18.45H18.4607H18.4715H18.4823H18.493H18.5038H18.5145H18.5253H18.5361H18.5468H18.5576H18.5684H18.5791H18.5899H18.6007H18.6114H18.6222H18.6329H18.6437H18.6545H18.6652H18.676H18.6868H18.6975H18.7083H18.7191H18.7298H18.7406H18.7514H18.7621H18.7729H18.7837H18.7944H18.8052H18.816H18.8267H18.8375H18.8483H18.8591H18.8698H18.8806H18.8914H18.9021H18.9129H18.9237H18.9344H18.9452H18.956H18.9667H18.9775H18.9883H18.9991H19.0098H19.0206H19.0314H19.0421H19.0529H19.0637H19.0744H19.0852H19.096H19.1068H19.1175H19.1283H19.1391H19.1498H19.1606H19.1714H19.1822H19.1929H19.2037H19.2145H19.2252H19.236H19.2468H19.2576H19.2683H19.2791H19.2899H19.3007H19.3114H19.3222H19.333H19.3437H19.3545H19.3653H19.3761H19.3868H19.3976H19.4084H19.4192H19.4299H19.4407H19.4515H19.4623H19.473H19.4838H19.4946H19.5054H19.5161H19.5269H19.5377H19.5484H19.5592H19.57H19.5808H19.5915H19.6023H19.6131H19.6239H19.6346H19.6454H19.6562H19.667H19.6777H19.6885H19.6993H19.7101H19.7208H19.7316H19.7424H19.7532H19.764H19.7747H19.7855H19.7963H19.8071H19.8178H19.8286H19.8394H19.8502H19.8609H19.8717H19.8825H19.8933H19.904H19.9148H19.9256H19.9364H19.9471H19.9579H19.9687H19.9795H19.9902H20.001H20.0118H20.0226H20.0334H20.0441H20.0549H20.0657H20.0765H20.0872H20.098H20.1088H20.1196H20.1303H20.1411H20.1519H20.1627H20.1734H20.1842H20.195H20.2058H20.2166H20.2273H20.2381H20.2489H20.2597H20.2704H20.2812H20.292H20.3028H20.3135H20.3243H20.3351H20.3459H20.3566H20.3674H20.3782H20.389H20.3998H20.4105H20.4213H20.4321H20.4429H20.4536H20.4644H20.4752H20.486H20.4967H20.5075H20.5183H20.5291H20.5398H20.5506H20.5614H20.5722H20.5829H20.5937H20.6045H20.6153H20.6261H20.6368H20.6476H20.6584H20.6692H20.6799H20.6907H20.7015H20.7123H20.723H20.7338H20.7446H20.7554H20.7661H20.7769H20.7877H20.7985H20.8092H20.82H20.8308H20.8416H20.8523H20.8631H20.8739H20.8847H20.8954H20.9062H20.917H20.9277H20.9385H20.9493H20.9601H20.9708H20.9816H20.9924H21.0032H21.0139H21.0247H21.0355H21.0463H21.057H21.0678H21.0786H21.0894H21.1001H21.1109H21.1217H21.1324H21.1432H21.154H21.1648H21.1755H21.1863H21.1971H21.2078H21.2186H21.2294H21.2402H21.2509H21.2617H21.2725H21.2832H21.294H21.3048H21.3156H21.3263H21.3371H21.3479H21.3586H21.3694H21.3802H21.391H21.4017H21.4125H21.4233H21.434H21.4448H21.4556H21.4663H21.4771H21.4879H21.4986H21.5094H21.5202H21.531H21.5417H21.5525H21.5633H21.574H21.5848H21.5956H21.6063H21.6171H21.6279H21.6386H21.6494H21.6602H21.6709H21.6817H21.6925H21.7032H21.714H21.7248H21.7355H21.7463H21.7571H21.7678H21.7786H21.7893H21.8001H21.8109H21.8216H21.8324H21.8432H21.8539H21.8647H21.8755H21.8862H21.897H21.9078H21.9185H21.9293H21.94H21.9508H21.9616H21.9723H21.9831H21.9939H22.0046H22.0154H22.0261H22.0369H22.0477H22.0584H22.0692H22.0799H22.0907H22.1015H22.1122H22.123H22.1337H22.1445H22.1553H22.166H22.1768H22.1875H22.1983H22.209H22.2198H22.2306H22.2413H22.2521H22.2628H22.2736H22.2843H22.2951H22.3059H22.3166H22.3274H22.3381H22.3489H22.3596H22.3704H22.3811H22.3919H22.4027H22.4134H22.4242H22.4349H22.4457H22.4564H22.4672H22.4779H22.4887H22.4994H22.5102H22.5209H22.5317H22.5424H22.5532H22.5639H22.5747H22.5854H22.5962H22.6069H22.6177H22.6284H22.6392H22.6499H22.6607H22.6714H22.6822H22.6929H22.7037H22.7144H22.7252H22.7359H22.7467H22.7574H22.7682H22.7789H22.7896H22.8004H22.8111H22.8219H22.8326H22.8434H22.8541H22.8649H22.8756H22.8863H22.8971H22.9078H22.9186H22.9293H22.9401H22.9508C22.9757 31.6081 22.9987 31.6081 23.02 31.608C23.0186 31.5785 23.0169 31.5462 23.0148 31.5105L23.0147 31.5085C22.9728 30.7421 22.9279 29.9755 22.883 29.2078L22.8829 29.2067C22.838 28.4397 22.7931 27.6715 22.7511 26.9032L22.751 26.9023C22.7112 26.1494 22.67 25.3955 22.6287 24.6412C22.5464 23.1364 22.4641 21.6296 22.3923 20.1242C22.2281 20.129 22.0534 20.1367 21.8742 20.1446C21.5533 20.1588 21.2183 20.1736 20.9043 20.1736L14.8439 20.2312L8.78117 20.2888L8.77642 20.2888V20.2888C8.72942 20.2888 8.68813 20.2891 8.65146 20.2898C8.65681 20.3483 8.66436 20.4164 8.6739 20.4978C8.67392 20.498 8.67393 20.4981 8.67394 20.4982L8.17734 20.5563C8.25586 21.2187 8.32409 21.8865 8.39215 22.5526C8.42794 22.9029 8.46368 23.2527 8.50084 23.601L17.9272 31.6081ZM17.9272 31.6081V31.5185H17.4272C16.8 31.5185 16.1715 31.5178 15.5423 31.517C13.6516 31.5146 11.7542 31.5121 9.86443 31.5313L17.9272 31.6081ZM8.46636 20.303C8.46634 20.303 8.46692 20.3029 8.46815 20.3026L8.46636 20.303ZM17.3937 26.6559L17.3936 26.6555C17.3689 26.5025 17.3712 26.4092 17.3866 26.3399C17.4006 26.2772 17.432 26.2028 17.519 26.1014L17.5216 26.0984C17.8933 25.6584 18.0394 25.089 18.0135 24.5554C17.9876 24.0225 17.7883 23.4768 17.4051 23.0763L17.405 23.0761C16.6578 22.2957 15.3506 22.2882 14.5707 23.0172C14.1674 23.3895 13.9289 23.9171 13.8691 24.4415C13.8092 24.9668 13.924 25.5445 14.3043 25.9867L14.3043 25.9867L14.3077 25.9905C14.5247 26.2376 14.5426 26.4634 14.5084 26.9148L14.5069 26.9337V26.9527C14.5069 27.177 14.4777 27.4054 14.442 27.6852L14.4406 27.6958C14.3926 27.9712 14.3923 28.3291 14.6508 28.5958C14.8984 28.8514 15.2435 28.8731 15.484 28.8594C15.887 28.8484 16.2832 28.8827 16.7245 28.9209L16.7346 28.9217C16.8845 28.9361 17.1942 28.9467 17.4177 28.708C17.6419 28.4687 17.6122 28.1579 17.5851 27.9971C17.5505 27.7814 17.5215 27.5647 17.4915 27.3405L17.491 27.3374C17.4614 27.1155 17.4307 26.8862 17.3937 26.6559Z" stroke="#021689"/>
</g>
<g filter="url(#filter2_d_485_66)">
<path d="M10.3877 18.7086C10.2474 18.7086 10.0688 18.7861 9.97953 18.644C9.89025 18.4891 10.0433 18.3728 10.1198 18.2566C10.4259 17.7529 10.7575 17.275 11.0381 16.7454C11.2549 16.3321 11.5738 16.1901 12.0202 16.1771C12.9895 16.1513 13.9588 16.0867 14.9281 16.0609C15.2852 16.0609 15.5786 15.9576 15.8592 15.738C16.4458 15.2859 17.0708 14.8597 17.6575 14.4077C17.8615 14.2527 18.0529 14.2139 18.2697 14.3689C18.3972 14.4464 18.5375 14.4852 18.6523 14.5756C19.6854 15.4022 20.8077 15.4668 22.0194 15.0664C22.5678 14.8856 23.1545 14.821 23.7157 14.6789C24.0218 14.6014 24.2513 14.6531 24.4171 14.9501C24.4554 15.0147 24.5192 15.0793 24.5574 15.1439C24.8763 15.7767 25.3609 16.0738 26.0752 15.9834C26.4578 15.9447 26.7511 16.1126 26.9552 16.4613C27.2103 16.9004 27.5164 17.3008 27.797 17.727C27.899 17.882 28.1158 18.037 28.0265 18.2307C27.9373 18.4374 27.6822 18.347 27.4909 18.347C26.2792 18.3857 25.0676 18.3857 23.856 18.4245C21.5347 18.502 19.2007 18.5149 16.8795 18.5666C14.7113 18.6053 12.5558 18.657 10.3877 18.7086Z" fill="white"/>
<path d="M10.744 18.2C12.7876 18.1513 14.8227 18.1032 16.8694 18.0667C17.7476 18.0471 18.6235 18.0331 19.4979 18.0192C20.9473 17.9961 22.3928 17.973 23.8393 17.9248L23.84 17.9247C24.4498 17.9052 25.0589 17.8955 25.6634 17.8858L25.6654 17.8858C26.2062 17.8771 26.7433 17.8686 27.2796 17.8532C27.2213 17.7676 27.1599 17.6791 27.097 17.5884C26.9034 17.3094 26.6958 17.0101 26.5233 16.7132M10.744 18.2L26.0752 15.9834M10.744 18.2C10.7753 18.1504 10.8071 18.1003 10.8392 18.0498C11.055 17.71 11.2839 17.3494 11.4799 16.9795L11.4799 16.9795L11.4809 16.9777C11.551 16.8441 11.6199 16.7843 11.6827 16.75C11.7524 16.7119 11.8578 16.6821 12.0341 16.6769M10.744 18.2L12.0341 16.6769M26.5233 16.7132C26.5231 16.713 26.523 16.7127 26.5228 16.7124L26.9552 16.4613L26.5236 16.7138C26.5235 16.7136 26.5234 16.7134 26.5233 16.7132ZM26.5233 16.7132C26.4563 16.5989 26.3919 16.5431 26.341 16.5151C26.2941 16.4892 26.2301 16.4711 26.1305 16.4804M26.1305 16.4804C26.133 16.4801 26.1355 16.4798 26.138 16.4794L26.0752 15.9834M26.1305 16.4804C26.1289 16.4805 26.1272 16.4807 26.1255 16.4809L26.0752 15.9834M26.1305 16.4804C25.6916 16.5347 25.2813 16.4741 24.9212 16.2697C24.5707 16.0707 24.3132 15.7614 24.1238 15.3942M26.0752 15.9834C25.3609 16.0738 24.8763 15.7767 24.5574 15.1439M24.1238 15.3942C24.1266 15.3979 24.1274 15.3991 24.1275 15.3991C24.1275 15.3991 24.1274 15.399 24.1273 15.3987L24.5574 15.1439M24.1238 15.3942C24.1197 15.3886 24.1112 15.3776 24.0949 15.357C24.0936 15.3553 24.0921 15.3534 24.0906 15.3514C24.0681 15.3231 24.0238 15.2672 23.987 15.205L23.9804 15.1939L23.9805 15.1938C23.9665 15.1686 23.9555 15.1542 23.9491 15.1467M24.1238 15.3942C24.1195 15.3858 24.1152 15.3773 24.1109 15.3688L24.5574 15.1439M24.5574 15.1439C24.5383 15.1116 24.5128 15.0793 24.4873 15.047C24.4618 15.0147 24.4363 14.9824 24.4171 14.9501L23.9491 15.1467M23.9491 15.1467C23.9556 15.1469 23.9586 15.1475 23.9586 15.1475C23.9586 15.1475 23.9574 15.1472 23.9552 15.1465C23.9488 15.1442 23.9444 15.1413 23.9433 15.1405C23.9429 15.1402 23.9428 15.1402 23.9431 15.1404C23.9439 15.1412 23.946 15.1432 23.9491 15.1467ZM23.9491 15.1467C23.9341 15.1463 23.9001 15.148 23.8384 15.1636C23.5989 15.2242 23.3528 15.272 23.1231 15.3167C23.0676 15.3275 23.0131 15.338 22.9598 15.3486C22.6774 15.4045 22.4191 15.4611 22.1759 15.5412M23.9491 15.1467L15.8592 15.738M22.1759 15.5412C22.176 15.5412 22.1761 15.5412 22.1762 15.5411L22.0194 15.0664L22.1759 15.5412ZM22.1759 15.5412C20.8452 15.9809 19.5358 15.9228 18.3399 14.966L18.6523 14.5756L18.3429 14.9684C18.3334 14.9609 18.3141 14.9485 18.2533 14.92C18.2463 14.9167 18.2381 14.9129 18.2288 14.9087C18.1757 14.8843 18.0896 14.8446 18.01 14.7962L17.9941 14.7865L17.9907 14.7841M17.9907 14.7841C18.0034 14.7758 18.0123 14.7712 18.0177 14.7687C18.0203 14.7675 18.0216 14.767 18.0216 14.767C18.0216 14.767 18.0164 14.7688 18.0068 14.7698C17.9998 14.7704 17.992 14.7705 17.9841 14.7697C17.9838 14.7696 17.9835 14.7696 17.9833 14.7696C17.9757 14.7688 17.9696 14.7673 17.9654 14.7661C17.9625 14.7652 17.961 14.7645 17.961 14.7645C17.961 14.7645 17.9669 14.7671 17.9789 14.7757L17.9907 14.7841ZM17.9907 14.7841C17.9824 14.7894 17.9725 14.7963 17.961 14.805M17.961 14.805C17.9616 14.8046 17.9621 14.8042 17.9626 14.8037L17.6575 14.4077L17.9599 14.8059C17.9603 14.8056 17.9607 14.8053 17.961 14.805ZM17.961 14.805C17.6624 15.0351 17.3551 15.2578 17.0547 15.4756L17.0518 15.4777C16.7483 15.6976 16.4519 15.9126 16.1657 16.133M16.1657 16.133C16.1662 16.1326 16.1668 16.1322 16.1673 16.1318L15.8592 15.738M16.1657 16.133C16.1653 16.1334 16.1648 16.1337 16.1643 16.1341L15.8592 15.738M16.1657 16.133C15.8011 16.4178 15.4024 16.5595 14.9352 16.5609M15.8592 15.738C15.5786 15.9576 15.2852 16.0609 14.9281 16.0609M14.9352 16.5609C14.9373 16.5608 14.9393 16.5608 14.9414 16.5607L14.9281 16.0609M14.9352 16.5609C14.4584 16.5737 13.9808 16.5959 13.4974 16.6185L13.495 16.6186C13.0122 16.6411 12.5235 16.6639 12.0341 16.6769M14.9352 16.5609C14.9328 16.5609 14.9305 16.5609 14.9281 16.5609V16.0609M14.9281 16.0609L12.0341 16.6769M27.5725 18.2495C27.5725 18.2495 27.5721 18.2489 27.5715 18.2478C27.5722 18.2489 27.5726 18.2495 27.5725 18.2495Z" stroke="#021689"/>
</g>
<g filter="url(#filter3_d_485_66)">
<path d="M12.6626 5.05798C12.7015 5.42669 12.455 5.48132 12.1954 5.52228C11.6634 5.59056 11.1702 5.75444 10.6771 5.95927C9.96334 6.25971 9.48319 6.79229 9.27555 7.58433C9.11982 8.14423 8.99005 8.71778 8.93814 9.30498C8.91219 9.55079 8.88624 9.7966 8.56181 9.81025C8.2244 9.82391 8.19844 9.59176 8.18547 9.33229C8.18547 9.26401 8.17249 9.19573 8.15951 9.12745C7.79615 6.73766 7.17325 6.04121 4.92819 5.49497C4.72056 5.44035 4.49995 5.454 4.5259 5.11261C4.55185 4.82583 4.64269 4.67562 4.92819 4.63465C5.30453 4.58002 5.66789 4.48443 6.03125 4.38884C7.40684 3.99282 7.99081 3.22808 8.12058 1.73959C8.14654 1.4255 7.97783 0.92023 8.5099 0.892918C9.06792 0.865606 8.89921 1.39819 8.95112 1.69862C9.27555 3.55583 9.92441 4.25228 11.7023 4.56637C11.9099 4.60734 12.1176 4.6483 12.3382 4.67562C12.5718 4.66196 12.6626 4.81217 12.6626 5.05798Z" fill="white"/>
<path d="M11.6124 5.05826C11.6617 5.06799 11.7121 5.07794 11.7636 5.08785C11.3121 5.18046 10.8908 5.32909 10.4853 5.49753L10.4853 5.49752L10.4831 5.49844C9.6292 5.85787 9.04101 6.51145 8.79287 7.45381C8.70203 7.78069 8.61812 8.11804 8.55248 8.46427C8.37177 7.54494 8.10851 6.8328 7.62292 6.2874C7.08108 5.67882 6.32078 5.34266 5.31064 5.07605C5.60272 5.0186 5.88311 4.94483 6.14666 4.87549L6.15846 4.87239L6.1585 4.87252L6.16958 4.86932C6.92109 4.65297 7.51727 4.31787 7.93677 3.78215C8.26504 3.36293 8.45644 2.8572 8.55677 2.27129C8.72776 3.00537 8.98481 3.60021 9.41987 4.05629C9.95103 4.61309 10.6797 4.89292 11.6103 5.05786L11.6124 5.05826ZM5.02388 5.1682C5.02387 5.16821 5.02385 5.16785 5.02383 5.16712L5.02388 5.1682Z" stroke="#021689"/>
</g>
<g filter="url(#filter4_d_485_66)">
<path d="M9.03658 14.0178C9.1015 14.3853 8.86778 14.4262 8.66003 14.4534C8.1017 14.5351 7.56934 14.6984 7.04997 14.9162C6.34881 15.2293 5.89436 15.7465 5.68661 16.5087C5.53079 17.094 5.41393 17.6793 5.33603 18.2783C5.29707 18.5369 5.23215 18.7547 4.92053 18.7274C4.62189 18.7138 4.59592 18.4824 4.56995 18.2646C4.54398 18.0469 4.54398 17.8155 4.50503 17.5977C4.16743 15.7329 3.37539 14.889 1.58354 14.4806C1.4537 14.4534 1.32385 14.4126 1.19401 14.399C0.999244 14.3717 0.882385 14.2764 0.908354 14.0587C0.921338 13.8409 0.947307 13.6367 1.20699 13.5959C1.58354 13.5278 1.9471 13.4461 2.32365 13.3509C3.81685 12.9561 4.44011 12.1667 4.54398 10.5469C4.55696 10.4108 4.55696 10.2746 4.56995 10.1385C4.58293 9.89352 4.75173 9.83907 4.9465 9.81185C5.16723 9.79824 5.27111 9.92074 5.29707 10.1385C5.37498 10.7374 5.47886 11.3227 5.68661 11.8944C5.93331 12.5614 6.36179 12.9697 6.99803 13.2011C7.54337 13.4053 8.11468 13.5006 8.686 13.5823C8.94568 13.6231 9.08851 13.7456 9.03658 14.0178Z" fill="white"/>
<path d="M6.82491 13.6702C7.2947 13.8459 7.77548 13.9458 8.23705 14.0202C7.75759 14.1184 7.29939 14.2694 6.85662 14.4551L6.85656 14.455L6.84611 14.4596C6.00991 14.833 5.4519 15.4684 5.2042 16.3773L5.20419 16.3773L5.20343 16.3801C5.11464 16.7137 5.038 17.0475 4.97355 17.384C4.79235 16.4598 4.48622 15.7183 3.95439 15.151C3.40483 14.5648 2.66551 14.2192 1.73331 14.002C1.97115 13.9517 2.2068 13.8962 2.44631 13.8356L2.44631 13.8356L2.45144 13.8343C3.2587 13.6209 3.90085 13.2822 4.3469 12.7185C4.67715 12.3012 4.87097 11.7968 4.97121 11.21C5.03415 11.4947 5.1132 11.7805 5.21667 12.0652L5.21667 12.0652L5.21766 12.0679C5.51618 12.8749 6.05488 13.3895 6.82491 13.6702ZM8.69077 13.9412C8.69076 13.9412 8.69024 13.9414 8.68917 13.9418L8.69077 13.9412ZM1.25073 13.9016C1.24814 13.9011 1.24698 13.9007 1.24705 13.9007C1.24711 13.9006 1.2484 13.9009 1.25073 13.9016ZM4.79634 10.1738C4.79637 10.1738 4.79666 10.1746 4.79711 10.1765C4.79653 10.1748 4.79631 10.1738 4.79634 10.1738Z" stroke="#021689"/>
</g>
</g>
<defs>
<filter id="filter0_d_485_66" x="10.8571" y="7.13513" width="24.5238" height="25.973" filterUnits="userSpaceOnUse" color-interpolation-filters="sRGB">
<feFlood flood-opacity="0" result="BackgroundImageFix"/>
<feColorMatrix in="SourceAlpha" type="matrix" values="0 0 0 0 0 0 0 0 0 0 0 0 0 0 0 0 0 0 127 0" result="hardAlpha"/>
<feOffset dx="1" dy="1"/>
<feComposite in2="hardAlpha" operator="out"/>
<feColorMatrix type="matrix" values="0 0 0 0 0.0117647 0 0 0 0 0.580392 0 0 0 0 0.764706 0 0 0 1 0"/>
<feBlend mode="normal" in2="BackgroundImageFix" result="effect1_dropShadow_485_66"/>
<feBlend mode="normal" in="SourceGraphic" in2="effect1_dropShadow_485_66" result="shape"/>
</filter>
<filter id="filter1_d_485_66" x="8.14286" y="19.6216" width="16.381" height="13.4865" filterUnits="userSpaceOnUse" color-interpolation-filters="sRGB">
<feFlood flood-opacity="0" result="BackgroundImageFix"/>
<feColorMatrix in="SourceAlpha" type="matrix" values="0 0 0 0 0 0 0 0 0 0 0 0 0 0 0 0 0 0 127 0" result="hardAlpha"/>
<feOffset dx="1" dy="1"/>
<feComposite in2="hardAlpha" operator="out"/>
<feColorMatrix type="matrix" values="0 0 0 0 0.0117647 0 0 0 0 0.580392 0 0 0 0 0.764706 0 0 0 1 0"/>
<feBlend mode="normal" in2="BackgroundImageFix" result="effect1_dropShadow_485_66"/>
<feBlend mode="normal" in="SourceGraphic" in2="effect1_dropShadow_485_66" result="shape"/>
</filter>
<filter id="filter2_d_485_66" x="9.95238" y="14.2703" width="19.0952" height="5.45947" filterUnits="userSpaceOnUse" color-interpolation-filters="sRGB">
<feFlood flood-opacity="0" result="BackgroundImageFix"/>
<feColorMatrix in="SourceAlpha" type="matrix" values="0 0 0 0 0 0 0 0 0 0 0 0 0 0 0 0 0 0 127 0" result="hardAlpha"/>
<feOffset dx="1" dy="1"/>
<feComposite in2="hardAlpha" operator="out"/>
<feColorMatrix type="matrix" values="0 0 0 0 0.0117647 0 0 0 0 0.580392 0 0 0 0 0.764706 0 0 0 1 0"/>
<feBlend mode="normal" in2="BackgroundImageFix" result="effect1_dropShadow_485_66"/>
<feBlend mode="normal" in="SourceGraphic" in2="effect1_dropShadow_485_66" result="shape"/>
</filter>
<filter id="filter3_d_485_66" x="4.52381" y="0.891907" width="9.14286" height="9.91891" filterUnits="userSpaceOnUse" color-interpolation-filters="sRGB">
<feFlood flood-opacity="0" result="BackgroundImageFix"/>
<feColorMatrix in="SourceAlpha" type="matrix" values="0 0 0 0 0 0 0 0 0 0 0 0 0 0 0 0 0 0 127 0" result="hardAlpha"/>
<feOffset dx="1" dy="1"/>
<feComposite in2="hardAlpha" operator="out"/>
<feColorMatrix type="matrix" values="0 0 0 0 0.0117647 0 0 0 0 0.580392 0 0 0 0 0.764706 0 0 0 1 0"/>
<feBlend mode="normal" in2="BackgroundImageFix" result="effect1_dropShadow_485_66"/>
<feBlend mode="normal" in="SourceGraphic" in2="effect1_dropShadow_485_66" result="shape"/>
</filter>
<filter id="filter4_d_485_66" x="0.904762" y="9.81082" width="9.14286" height="9.91891" filterUnits="userSpaceOnUse" color-interpolation-filters="sRGB">
<feFlood flood-opacity="0" result="BackgroundImageFix"/>
<feColorMatrix in="SourceAlpha" type="matrix" values="0 0 0 0 0 0 0 0 0 0 0 0 0 0 0 0 0 0 127 0" result="hardAlpha"/>
<feOffset dx="1" dy="1"/>
<feComposite in2="hardAlpha" operator="out"/>
<feColorMatrix type="matrix" values="0 0 0 0 0.0117647 0 0 0 0 0.580392 0 0 0 0 0.764706 0 0 0 1 0"/>
<feBlend mode="normal" in2="BackgroundImageFix" result="effect1_dropShadow_485_66"/>
<feBlend mode="normal" in="SourceGraphic" in2="effect1_dropShadow_485_66" result="shape"/>
</filter>
<clipPath id="clip0_485_66">
<rect width="38" height="33" fill="white"/>
</clipPath>
</defs>
</svg>
