<svg width="150" height="334" viewBox="0 0 150 334" fill="none" xmlns="http://www.w3.org/2000/svg">
<path d="M-21.0176 133.968C-21.0176 133.558 -21.0176 133.149 -21.0176 132.694C-21.0176 132.376 -21.0176 132.058 -20.9722 131.739C-20.9722 131.284 -20.9268 130.875 -20.9268 130.42C-20.9268 130.102 -20.8814 129.784 -20.8814 129.42C-20.836 128.919 -20.7906 128.419 -20.7452 127.873C-20.6998 127.555 -20.6998 127.237 -20.6544 126.918C-20.5636 126.1 -20.4728 125.236 -20.3366 124.372C-20.2912 124.099 -20.2458 123.826 -20.2004 123.553C-20.1096 122.916 -20.0188 122.28 -19.8826 121.643C-19.8372 121.234 -19.7464 120.87 -19.6556 120.46C-19.5648 119.915 -19.4286 119.369 -19.3378 118.778C-19.247 118.323 -19.1562 117.914 -19.02 117.459C-18.9746 117.186 -18.8838 116.913 -18.8384 116.64C-18.8384 116.64 -18.8384 116.64 -18.793 116.595C-18.1574 113.911 -17.2948 111.137 -16.2505 108.272C-14.2983 107.772 -14.2983 107.772 -14.2983 107.772L-14.7977 106.271C-14.7977 106.271 -12.0282 97.2661 -6.30769 91.2174C-4.03764 91.3993 -4.03764 91.3993 -4.03764 91.3993L-4.53703 89.0799C-4.53703 89.0799 2.99954 80.257 4.77019 78.3014L7.58504 79.3929V77.6192C7.58504 77.6192 8.40227 77.0734 9.94591 76.4367C9.9913 76.4367 10.0367 76.3912 10.0821 76.3912C10.3999 76.2548 10.7631 76.1638 11.1263 76.0274C11.2625 75.9819 11.3987 75.9365 11.5349 75.891C11.5803 75.891 11.6257 75.8455 11.6711 75.8455C11.6257 75.8 11.6257 75.8 11.5803 75.7545C11.2171 75.2998 10.7631 74.7995 10.3091 74.2992C8.81087 72.7074 6.76782 71.0702 4.31618 70.2061C4.81558 66.2949 4.81557 66.2949 4.81557 66.2949L2.36392 68.9782C2.36392 68.9782 2.04611 68.7053 1.5013 68.296C-0.269348 66.9771 -4.26463 64.1119 -6.6709 63.5662C-5.94447 60.1098 -5.94447 60.1098 -5.94447 60.1098L-8.16913 61.838C-8.16913 61.838 -13.5719 59.6095 -16.7499 59.1547C-17.4764 55.6983 -17.4763 55.6983 -17.4763 55.6983L-18.2028 57.6539C-18.2028 57.6539 -19.1108 57.1991 -20.609 56.6988C-20.9722 56.5624 -21.3354 56.4714 -21.7441 56.335C-21.9257 56.2895 -22.0619 56.244 -22.2435 56.1986C-22.5159 56.1076 -22.7883 56.0621 -23.1061 55.9712C-23.3331 55.9257 -23.5147 55.8802 -23.7417 55.7893C-24.1957 55.6983 -24.6951 55.5619 -25.1491 55.4709C-25.3761 55.4254 -25.6031 55.3799 -25.8302 55.3345C-26.148 55.289 -26.5112 55.2435 -26.829 55.198C-27.1014 55.1525 -27.3738 55.1525 -27.6008 55.1071C-27.964 55.0616 -28.3726 55.0616 -28.7812 55.0161C-29.0082 55.0161 -29.2352 54.9706 -29.4622 54.9706C-30.0525 54.9706 -30.6427 54.9706 -31.2783 54.9706C-31.5053 54.9706 -31.7323 55.0161 -31.9593 55.0161C-32.4133 55.0616 -32.8673 55.1071 -33.3213 55.1525C-33.5483 55.198 -33.7753 55.198 -34.0023 55.2435C-34.6834 55.3345 -35.319 55.4709 -36 55.6983C-36 55.6983 -36 55.6528 -35.9546 55.6073C-35.9546 55.5619 -35.9546 55.5619 -35.9092 55.5164C-35.8638 55.4709 -35.8638 55.3799 -35.773 55.289C-35.7276 55.2435 -35.7276 55.198 -35.6822 55.1071C-35.6368 55.0161 -35.546 54.9252 -35.5006 54.7887C-35.4552 54.6978 -35.4098 54.6523 -35.3644 54.5613C-35.2282 54.3794 -35.092 54.152 -34.9104 53.9701C-34.8196 53.8791 -34.7288 53.7427 -34.638 53.6517C-34.5472 53.5153 -34.4109 53.3789 -34.2747 53.1969C-34.1385 53.0605 -34.0477 52.9241 -33.9115 52.7876C-33.7753 52.6512 -33.6391 52.5148 -33.5029 52.3328C-33.3667 52.1964 -33.2305 52.0145 -33.0489 51.8326C-32.8673 51.6507 -32.6403 51.4688 -32.4587 51.2868C-32.1863 51.014 -31.8685 50.7411 -31.5507 50.4682C-31.3691 50.2863 -31.1421 50.1499 -30.9151 49.9679C-30.6881 49.786 -30.4156 49.6041 -30.1886 49.4222C-29.9616 49.2403 -29.7346 49.1038 -29.5076 48.9219C-29.2352 48.74 -28.9628 48.5581 -28.645 48.3307C-28.418 48.1943 -28.1456 48.0123 -27.8732 47.8759C-27.3284 47.5576 -26.7382 47.1937 -26.1026 46.8754C-25.7847 46.6935 -25.5123 46.557 -25.1945 46.3751C-24.8313 46.1932 -24.4227 46.0113 -24.0141 45.8294C-23.6963 45.6929 -23.3785 45.5565 -23.0153 45.42C-22.5613 45.2381 -22.1527 45.0562 -21.6987 44.8743C-21.5625 44.8288 -21.4716 44.7833 -21.3808 44.7379C-17.9758 43.5099 -13.8443 42.4639 -8.80475 41.9182C-5.85368 43.419 -5.35426 44.374 -5.35426 44.374L-5.85368 43.419C-5.85368 43.419 0.729477 44.0557 5.72359 46.3296L5.67821 46.2841C5.8598 46.3751 5.996 46.4206 6.1776 46.5115C6.22301 46.5115 6.26842 46.557 6.31381 46.557C6.76782 46.7844 7.17644 47.0118 7.58504 47.2392C7.94824 47.4666 8.31146 47.694 8.62927 47.9669C8.67467 48.0123 8.76547 48.0578 8.81087 48.1033C9.44649 48.6036 10.0367 49.1948 10.4453 49.8315C10.4907 49.9225 10.5361 49.9679 10.5815 50.0589C10.7631 50.3773 10.9447 50.6956 11.0355 51.0594C11.7619 49.6041 11.7619 49.6041 11.7619 49.6041L17.7095 53.6517L17.1647 51.6052L19.8433 51.3778L17.1647 50.3773L12.9878 36.87L15.6664 35.6421L11.8073 36.1423C11.8073 36.1423 11.5349 35.6421 11.0809 34.778C9.7189 32.2766 6.54082 26.8646 2.90874 23.3627C4.72478 21.5436 4.72478 21.5436 4.72478 21.5436L2.36392 22.8625C2.36392 22.8625 -3.44742 14.6762 -6.48929 12.948C-5.26346 10.3102 -5.26346 10.3102 -5.26346 10.3102L-7.21571 12.1294C-7.21571 12.1294 -12.346 1.07801 -17.431 0.0319897C-17.431 0.0319897 -10.2122 -0.468279 4.36156 2.48786C4.22536 4.44345 4.22536 4.44345 4.22536 4.44345L5.4512 3.57935C5.4512 3.57935 15.8026 8.44561 19.0261 12.5387C19.2531 13.0845 19.4347 13.5847 19.6163 14.0395C20.1157 15.3584 20.3428 16.2225 20.4335 16.5863C20.4335 16.6318 20.4335 16.6318 20.4335 16.6318C20.4335 16.7228 20.4789 16.7683 20.4789 16.7683L21.614 14.1305C21.614 14.1305 26.5173 18.2236 29.9678 26.0915C28.969 28.7292 29.1506 29.5479 29.1506 29.5479L31.1028 27.2739C31.1028 27.2739 32.0562 28.4109 32.9642 31.0942C33.0096 31.1851 33.055 31.3215 33.055 31.458C33.1004 31.6399 33.1912 31.8673 33.2366 32.0947C33.2821 32.2766 33.3275 32.413 33.3729 32.595C33.4183 32.8224 33.5091 33.0952 33.5545 33.3681C33.5999 33.5045 33.6453 33.6865 33.6907 33.8229C33.7815 34.2322 33.8723 34.687 33.9631 35.1418C34.0085 35.2782 34.0085 35.4147 34.0539 35.5511C34.0993 35.9149 34.1901 36.3242 34.2355 36.6881C34.2809 36.87 34.2809 37.0519 34.3263 37.2338C34.3717 37.6886 34.4171 38.1889 34.5079 38.6891C34.5079 38.7801 34.5533 38.9165 34.5533 39.0075C34.5987 39.5987 34.6441 40.2809 34.6895 40.9176C34.6895 41.0995 34.6895 41.2814 34.6895 41.4634C34.6895 41.7817 34.7349 42.0546 34.7349 42.3729C38.0038 36.3242 42.5439 29.7753 42.5439 29.7753L46.63 30.0936C46.63 30.0936 46.63 30.0936 45.4949 28.6383C47.4472 25.1819 49.7626 23.5446 49.7626 23.5446L52.2143 24.1813C52.2143 24.1813 52.2143 24.1813 50.5799 21.589C58.2526 15.8587 63.6554 15.0401 63.6554 15.0401L66.4248 17.6778C66.4248 17.6778 66.2432 16.8592 65.426 14.4034C81.271 12.4023 91.9402 17.9052 97.2976 23.6811C98.1148 24.5907 98.8412 25.4548 99.386 26.3643C91.7132 24.5907 83.2232 28.3199 83.2232 28.3199L79.3187 26.8646L80.7716 28.8202L71.646 34.2322L66.107 31.9583C66.107 31.9583 66.7426 32.7769 68.8765 34.7325C66.7426 36.0514 59.3877 43.237 59.3877 43.237L53.1677 40.4628C53.1677 40.4628 52.9861 41.4634 56.255 44.374C55.8918 44.4195 55.574 44.5105 55.2562 44.6014C55.1654 44.6469 55.0292 44.6924 54.9384 44.6924C54.7568 44.7379 54.5752 44.8288 54.439 44.8743C54.3482 44.9198 54.2573 44.9652 54.1211 45.0107C53.9849 45.0562 53.8487 45.1472 53.7579 45.1926C53.6671 45.2381 53.5763 45.2836 53.5309 45.3291C53.4401 45.3746 53.3493 45.4655 53.2585 45.511C53.2131 45.5565 53.1223 45.602 53.0769 45.6474C52.9861 45.6929 52.9407 45.7839 52.8953 45.8294C52.8499 45.8748 52.8045 45.9203 52.7591 45.9658C52.7137 46.0113 52.6683 46.0567 52.6229 46.1022C52.5775 46.1477 52.5775 46.1932 52.5321 46.1932C52.4867 46.2387 52.4867 46.2841 52.4413 46.3296L52.3959 46.3751C52.3959 46.4206 52.3505 46.4206 52.3505 46.4206L49.2632 45.2836C49.2632 45.2836 49.2632 45.2836 51.8965 47.7395C49.4448 49.2858 46.3576 54.0156 44.6777 56.8353C44.6323 56.8807 44.6323 56.9262 44.5869 56.9717C44.1783 57.6539 43.8605 58.2451 43.6335 58.6089C43.6335 58.6544 43.5881 58.6999 43.5881 58.7454C43.5427 58.8363 43.4973 58.9273 43.4519 58.9728C43.4519 59.0183 43.4065 59.0637 43.4065 59.0637L40.7732 58.7454C40.7732 58.7454 40.7732 58.7454 41.9083 60.3826C39.1388 61.9744 35.3705 67.3864 32.7372 71.4795C32.9642 71.2976 33.1912 71.1157 33.4183 70.8883L33.4637 70.8428C33.8723 70.479 34.3263 70.1606 34.8257 69.7968C34.8711 69.7513 34.9619 69.7058 35.0527 69.6603C36.0061 68.9782 37.0957 68.296 38.367 67.6593C38.4578 67.6138 38.594 67.5683 38.6848 67.4774C39.3204 67.159 39.956 66.8407 40.637 66.5678C40.7278 66.5223 40.8186 66.5223 40.9094 66.4768C41.5451 66.2039 42.2261 65.9765 42.9071 65.7037C43.0433 65.6582 43.1795 65.6127 43.3157 65.5672C44.0421 65.2944 44.8593 65.067 45.6766 64.8396C45.7673 64.8396 45.8128 64.7941 45.9036 64.7941H45.8582C49.8988 63.7026 54.8022 62.9295 60.7951 62.8385C60.7951 65.4763 60.7951 65.4763 60.7951 65.4763L62.7474 63.5207C62.7474 63.5207 68.6495 63.839 80.0452 70.388C78.0929 73.6625 78.0929 73.6625 78.0929 73.6625L81.9974 71.0702C81.9974 71.0702 92.4397 76.937 96.0263 79.2564C95.3907 82.5309 95.3907 82.5309 95.3907 82.5309L97.6608 81.212C97.6608 81.212 99.7946 82.5764 102.519 85.3506C102.564 85.3961 102.564 85.3961 102.609 85.4416C102.882 85.7144 103.2 86.0328 103.472 86.3511C103.518 86.3966 103.563 86.4421 103.608 86.5331C103.881 86.8514 104.199 87.1698 104.471 87.5336C104.516 87.5791 104.562 87.67 104.653 87.7155C104.925 88.0793 105.243 88.3977 105.515 88.807C105.561 88.898 105.606 88.9435 105.697 89.0344C105.969 89.3982 106.287 89.8075 106.559 90.2169C106.605 90.3078 106.696 90.3988 106.741 90.4897C107.013 90.899 107.286 91.3084 107.604 91.7177C107.649 91.8086 107.74 91.8996 107.785 91.9905C108.058 92.4453 108.33 92.8546 108.602 93.3549C108.648 93.4459 108.739 93.5823 108.784 93.7188C109.056 94.1735 109.283 94.6283 109.556 95.1286C109.874 95.7198 110.146 96.3565 110.418 96.9932C109.828 98.1757 109.737 98.9488 109.919 99.4036C109.964 99.5855 110.055 99.7675 110.191 99.8584L110.237 99.9039C110.328 99.9949 110.464 100.04 110.555 100.086C110.6 100.086 110.6 100.131 110.645 100.131C110.736 100.177 110.827 100.177 110.918 100.177H110.963C111.009 100.177 111.099 100.177 111.099 100.177C111.099 100.177 119.907 115.23 110.101 132.558C106.196 122.416 99.7946 117.322 99.7946 117.322L101.384 113.911L99.3406 115.276L93.2115 106.862L94.5735 104.133L92.3035 104.816L81.9974 95.4015L81.6342 95.0376L82.9962 90.2623L80.2722 93.4459C80.2722 93.4459 77.7751 90.9445 75.7321 90.035C75.7321 87.761 75.7321 87.761 75.7321 87.761L74.143 89.1254C74.143 89.1254 65.5168 82.7583 60.9767 81.6213C60.5227 78.4378 60.5227 78.4378 60.5227 78.4378L59.3877 80.0296C59.3877 80.0296 55.6648 78.3014 50.8977 77.983C50.4891 77.9375 50.035 77.9375 49.581 77.9375C49.4448 77.9375 49.354 77.9375 49.2178 77.9375C48.7638 77.9375 48.2644 77.9375 47.8104 77.983C46.6754 75.4817 46.6754 75.4817 46.6754 75.4817L45.9944 77.3008C45.9944 77.3008 44.4053 77.2553 42.1353 77.2553C42.4077 77.3463 42.7255 77.3918 42.9979 77.5282C43.1341 77.5737 43.2249 77.6192 43.3611 77.6192C43.6789 77.7101 44.0421 77.8466 44.4053 77.983C44.4507 77.983 44.4961 78.0285 44.5415 78.0285C48.2644 79.5748 52.1689 82.6674 55.4832 88.5796C53.6671 88.7615 53.6671 88.7615 53.6671 88.7615L56.6636 90.5807L56.0734 91.9905C56.0734 91.9905 60.8859 101.223 61.8847 107.044C59.2969 107.635 59.2969 107.635 59.2969 107.635L61.7031 109.227L60.5227 109.409C60.5227 109.409 60.9767 109.682 61.5215 110.455C61.5215 110.455 61.5215 110.455 61.5215 110.501C61.7485 110.864 62.0209 111.319 62.2479 111.956C62.2479 112.001 62.2933 112.047 62.2933 112.092C62.3841 112.365 62.4749 112.638 62.5658 112.956C62.5658 113.047 62.6112 113.138 62.6112 113.229C62.702 113.548 62.7474 113.911 62.7928 114.275C62.7928 114.366 62.8382 114.412 62.8382 114.503C62.8836 114.957 62.9744 115.458 62.9744 116.003C62.9744 116.049 62.9744 116.094 62.9744 116.094C62.9744 116.595 63.0198 117.14 62.9744 117.686C62.9744 117.823 62.9744 118.005 62.9744 118.186C62.9744 118.687 62.929 119.187 62.8836 119.778C62.8836 119.96 62.8382 120.142 62.8382 120.324C62.7474 121.006 62.702 121.688 62.5658 122.461C62.5658 122.552 62.5657 122.598 62.5203 122.689C61.1129 122.871 61.1129 122.871 61.1129 122.871L62.929 126.1L61.3399 126.691C61.3399 126.691 60.4773 138.243 56.3912 148.839C56.9814 151.341 57.2992 152.523 57.2992 152.523L58.298 149.931C58.298 149.931 60.2503 151.704 62.5203 155.525C62.4749 154.57 62.4296 153.66 62.3841 152.751C62.3841 152.66 62.3841 152.614 62.3841 152.523C62.3841 151.886 62.3841 151.295 62.3841 150.704C62.3841 150.658 62.3841 150.613 62.3841 150.568C62.3841 149.976 62.4296 149.431 62.4749 148.885C62.4749 148.839 62.4749 148.839 62.4749 148.794C62.5203 148.248 62.5658 147.702 62.6112 147.202C62.6112 147.157 62.6112 147.111 62.6112 147.066C62.702 146.02 62.8382 145.11 62.929 144.291V144.246C63.2468 141.972 63.61 140.562 63.61 140.562H66.3794L64.1094 139.425L67.0605 132.058L68.6949 131.557L68.3771 130.102L70.3293 125.19L72.4632 125.509C72.4632 125.509 72.4632 125.509 71.646 123.053C78.3653 112.092 91.8948 108.499 91.8948 108.499L90.5782 117.322H88.1266L89.9426 119.278L87.3093 128.783L84.2221 128.965L86.4921 131.102L84.6761 137.333L82.2244 137.97C82.2244 137.97 82.2244 137.97 83.9043 139.516C83.9497 139.562 83.9497 139.562 83.9951 139.607C81.0894 143.973 80.0906 151.568 79.7274 155.206C79.7274 155.343 79.7274 155.434 79.682 155.57C82.4968 153.387 84.7669 152.205 84.7669 152.205L84.2675 150.249L87.5363 151.25C87.5363 151.25 87.5363 151.25 86.7191 149.431C87.1731 149.112 87.6725 148.794 88.2174 148.521C88.4898 148.385 88.7622 148.248 89.0346 148.112C89.307 147.975 89.534 147.839 89.8064 147.702C89.8518 147.702 89.8518 147.657 89.8972 147.657C90.0788 147.566 90.3058 147.475 90.5328 147.384C90.896 147.202 91.2592 147.066 91.6224 146.929C91.8494 146.838 92.1218 146.747 92.3489 146.656C92.7121 146.52 93.0299 146.383 93.3931 146.292C93.6655 146.202 93.9833 146.111 94.2557 146.02C94.5735 145.929 94.8913 145.792 95.2091 145.701C95.5269 145.61 95.8447 145.519 96.1625 145.428C96.4349 145.337 96.7074 145.246 96.9798 145.201C97.343 145.11 97.7062 145.019 98.0694 144.928C98.2964 144.883 98.5234 144.837 98.705 144.746C99.1136 144.655 99.5222 144.564 99.9308 144.473C100.022 144.473 100.112 144.428 100.203 144.428C105.152 143.336 109.238 142.973 109.238 142.973L113.824 145.929C113.824 145.929 113.324 145.292 112.689 143.291C116.593 143.291 120.543 144.61 120.543 144.61L122.677 148.203L122.359 145.428L131.031 147.702L133.482 151.795C133.482 151.795 133.482 151.795 133.8 148.839C140.02 153.433 148.328 164.075 149.009 174.035C147.193 171.579 141.836 169.76 141.836 169.76L141.2 165.53L140.202 169.123L137.251 168.714L135.798 164.12L135.48 167.713L127.126 165.894L126.309 159.027L124.493 163.756L120.588 162.756L119.771 159.163L119.135 163.256L110.963 163.893L109.147 160.482L109.465 164.393L103.926 165.394L100.657 160.8C100.657 160.8 100.657 160.8 101.474 166.531C99.4314 166.758 94.2103 168.532 91.6678 169.441C91.5316 169.487 91.3954 169.532 91.2592 169.578C91.5316 169.669 91.8494 169.714 92.1218 169.805L92.031 169.623C92.031 169.623 111.781 166.212 129.941 181.22C129.623 183.176 129.623 183.176 129.623 183.176L132.393 183.494L131.757 184.95L137.977 189.225L137.478 190.362C137.478 190.362 139.112 191.681 140.883 195.091C140.883 195.091 140.883 195.137 140.928 195.137C141.064 195.41 141.246 195.728 141.382 196.047C141.427 196.092 141.427 196.137 141.473 196.183C141.609 196.501 141.745 196.82 141.927 197.183C141.927 197.229 141.972 197.274 141.972 197.274C142.29 198.048 142.608 198.866 142.926 199.821C142.971 199.912 142.971 200.049 143.016 200.14C143.107 200.503 143.243 200.867 143.334 201.231C143.38 201.368 143.425 201.504 143.47 201.64C143.561 202.004 143.697 202.414 143.788 202.823C143.834 202.959 143.834 203.096 143.879 203.232C144.015 203.778 144.151 204.324 144.242 204.915V204.96C144.333 205.506 144.469 206.097 144.56 206.643C144.605 206.825 144.605 207.052 144.651 207.234C144.696 207.644 144.787 208.098 144.833 208.553C144.878 208.781 144.878 209.008 144.923 209.281C144.969 209.736 145.014 210.19 145.06 210.691C145.105 210.918 145.105 211.146 145.105 211.373C145.15 212.055 145.241 212.783 145.287 213.556C145.287 213.647 145.287 213.692 145.287 213.783C145.332 214.466 145.332 215.148 145.377 215.875C145.377 216.148 145.377 216.421 145.377 216.694C145.377 217.24 145.377 217.785 145.377 218.331C145.377 218.65 145.377 218.968 145.377 219.286C145.377 219.878 145.377 220.469 145.332 221.06C145.332 221.378 145.332 221.651 145.287 221.97C145.287 222.561 145.241 223.152 145.196 223.743C145.196 223.789 145.196 223.834 145.196 223.834C145.196 224.425 145.15 224.744 145.15 224.744C145.15 224.744 145.15 224.607 145.15 224.425C145.15 224.516 145.15 224.653 145.15 224.744C144.696 223.834 144.197 222.97 143.743 222.106C143.607 221.879 143.47 221.651 143.334 221.424C142.971 220.787 142.653 220.196 142.29 219.605C142.154 219.423 142.063 219.195 141.927 219.013C141.019 217.513 140.111 216.148 139.294 214.92C139.203 214.784 139.112 214.647 139.021 214.511C138.658 214.011 138.34 213.556 138.022 213.147C137.932 213.01 137.841 212.919 137.75 212.783C136.933 211.691 136.161 210.782 135.434 209.918C135.389 209.827 135.298 209.781 135.253 209.69C134.935 209.372 134.663 209.008 134.345 208.735C134.299 208.69 134.209 208.599 134.163 208.553C133.482 207.871 132.892 207.28 132.347 206.78C132.302 206.734 132.256 206.689 132.211 206.643C131.984 206.461 131.802 206.279 131.621 206.143C131.575 206.097 131.485 206.052 131.439 206.006C131.258 205.825 131.031 205.688 130.849 205.552L130.804 205.506C129.986 204.869 129.532 204.642 129.532 204.642L131.348 201.549L129.215 202.868C129.215 202.868 121.36 196.638 118.273 195.501L118.772 191.908L117.456 194.045L116.457 192.408L115.821 192.908L108.466 189.861C109.011 190.225 109.692 190.725 110.6 191.408C112.189 196.82 112.325 210.827 112.325 212.555C112.325 212.692 112.325 212.737 112.325 212.737L109.874 211.646C109.874 211.646 109.874 211.646 112.189 216.694C112.28 220.787 110.418 227.473 109.828 229.519C109.692 229.928 109.647 230.156 109.647 230.156L107.558 229.292L109.011 231.52L108.148 235.431L105.924 234.431C105.924 234.431 105.924 234.431 107.513 236.887C106.786 242.026 102.246 249.257 102.246 249.257L99.9308 249.393C99.9308 249.393 99.9308 249.393 101.157 251.622C98.705 257.625 86.9915 269.723 86.9915 269.723C87.7179 267.13 88.7168 259.854 88.7168 259.854L90.3058 259.444L88.7168 257.58L89.7156 256.443L87.4455 256.852L88.8984 243.117L91.6224 241.98L89.4886 240.389L92.4851 238.524L87.4909 238.251L86.9461 224.971L87.8088 223.379L86.4013 222.106L88.8076 219.968H85.0847L81.5434 206.507L83.1324 203.914L80.8624 204.642L77.4573 195.91L79.5912 192.044L75.3235 194.455L70.8287 188.224C69.4667 191.862 66.8789 198.821 65.8346 202.595C65.4714 202.414 65.199 202.277 64.8812 202.141C64.745 202.505 64.6088 202.959 64.4272 203.414C64.4272 203.46 64.3818 203.551 64.3818 203.596C62.5658 209.008 59.6601 218.559 59.6601 224.835C58.9791 224.607 58.4342 224.471 57.9348 224.289C57.9348 224.425 57.8894 224.516 57.8894 224.653C57.8894 224.789 57.844 224.926 57.844 225.062C57.7986 225.244 57.7986 225.471 57.7532 225.653C57.7078 225.926 57.6624 226.245 57.617 226.517C56.7544 232.748 55.3924 243.663 55.7556 251.44C55.2562 251.485 54.8476 251.531 54.4844 251.576C54.4844 252.531 54.5298 253.714 54.5752 255.078C54.7568 262.582 55.3016 275.089 56.7544 281.047C56.2096 281.183 55.7102 281.274 55.3016 281.365L57.4354 308.38H56.2096L57.7986 315.383C57.8894 315.52 57.8894 315.611 57.8894 315.611C57.8894 315.611 57.8894 311.518 61.9755 305.787C59.5239 310.699 60.3411 315.747 60.3411 315.747C60.3411 315.747 61.3399 309.699 65.7438 308.88C62.7928 310.335 61.1583 318.84 61.1583 318.84C62.7928 313.792 69.4667 312.609 69.4667 312.609C69.4667 312.609 61.7939 318.84 62.1117 323.251C63.9278 318.521 68.6495 317.703 68.6495 317.703C68.6495 317.703 65.0628 320.795 64.064 326.389C64.1094 326.253 64.2002 326.071 64.291 325.889C64.3364 325.798 64.3818 325.707 64.4272 325.616C64.4726 325.525 64.518 325.434 64.5634 325.343C64.6088 325.207 64.6996 325.116 64.7904 324.979C64.8358 324.889 64.8812 324.798 64.9266 324.707C65.0174 324.57 65.1082 324.434 65.199 324.297C65.2444 324.206 65.3352 324.115 65.3806 324.024C65.4714 323.888 65.6076 323.752 65.6984 323.57C65.7438 323.479 65.8346 323.388 65.88 323.297C66.0162 323.16 66.107 323.024 66.2432 322.842C66.334 322.751 66.3794 322.66 66.4702 322.569C66.6064 322.433 66.7426 322.296 66.8789 322.114C66.9697 322.023 67.0605 321.932 67.1059 321.887C67.2421 321.75 67.4237 321.614 67.5599 321.478C67.6507 321.387 67.7415 321.341 67.8323 321.25C68.0139 321.114 68.1501 320.977 68.3317 320.841C68.4225 320.75 68.5133 320.704 68.6041 320.614C68.7857 320.477 68.9673 320.341 69.1489 320.25C69.2397 320.204 69.3305 320.113 69.4213 320.068C69.6029 319.931 69.7845 319.84 70.0115 319.749C70.1023 319.704 70.1931 319.658 70.2839 319.613C70.5109 319.522 70.6925 319.431 70.9195 319.34C71.0103 319.295 71.0557 319.295 71.1466 319.249C72.0092 318.931 72.8718 318.749 73.8252 318.794H73.8706C74.0976 318.794 74.37 318.84 74.597 318.885C74.6878 318.885 74.824 318.885 74.9148 318.931C75.3689 319.022 75.8229 319.113 76.2769 319.295C69.8753 319.295 67.1059 325.389 66.1978 328.072C69.5575 328.209 74.5062 328.663 80.7716 329.891C93.1661 332.302 70.3293 330.164 52.2143 331.619C34.0993 333.12 9.12869 334.757 15.2124 332.711C21.2962 330.664 18.2089 330.801 3.27194 331.528C-9.89438 332.165 -0.269348 328.39 11.3987 327.344C9.03787 326.207 5.996 325.025 3.77135 325.252C6.85863 324.252 9.8551 324.525 11.3533 324.798C11.3533 324.57 11.3079 324.388 11.3079 324.161C9.17409 322.615 4.40697 319.431 0.593277 319.295C6.63162 318.794 10.2183 319.931 10.2183 319.931C10.2183 319.931 5.81439 315.02 0.275467 314.519C0.275467 314.519 5.13339 313.519 10.6723 315.383C10.6269 314.792 10.5815 314.246 10.5815 313.655C7.53964 310.699 4.08917 307.879 4.08917 307.879C4.08917 307.879 7.31264 307.697 10.3999 310.062C10.3545 309.38 10.3545 308.698 10.3091 308.016C8.26605 304.196 6.13222 301.194 6.13222 301.194C6.13222 301.194 7.94826 301.876 10.2183 303.559C10.2183 301.922 10.2637 300.466 10.3545 299.238C9.80969 294.236 8.85628 284.185 8.58386 276.999C8.58386 276.954 8.58386 276.863 8.58386 276.817L8.17526 276.772C8.17526 276.772 6.13222 263.583 8.85628 252.941C8.94708 252.531 9.08328 252.122 9.21948 251.667C9.26488 251.44 9.35568 251.213 9.40108 251.031L6.49542 251.622C6.49542 251.622 5.7236 242.663 7.17644 233.931V233.885C7.17644 233.794 7.22183 233.703 7.22183 233.612C7.31264 233.203 7.35805 232.794 7.44884 232.384C7.44884 232.339 7.49425 232.248 7.49425 232.202L6.26842 232.066L3.99835 231.838C3.99835 231.838 4.13455 228.155 4.40697 223.516C4.40697 223.425 4.40697 223.334 4.40697 223.243C4.45236 222.697 4.49777 222.106 4.54318 221.515C4.54318 221.287 4.58856 221.105 4.58856 220.878C4.63397 220.287 4.67938 219.696 4.72478 219.104C4.72478 218.922 4.77019 218.786 4.77019 218.604C4.81558 217.967 4.86098 217.331 4.95178 216.694C4.95178 216.558 4.95178 216.467 4.99719 216.33C5.08798 215.602 5.13339 214.875 5.2242 214.193C5.2242 214.147 5.2242 214.147 5.2242 214.102C5.31499 213.374 5.40579 212.646 5.49658 212.01C5.49658 211.964 5.49658 211.919 5.49658 211.873C5.58739 211.236 5.67819 210.645 5.769 210.1C5.81439 209.963 5.81441 209.827 5.8598 209.69C5.8598 209.599 5.90521 209.508 5.90521 209.417C5.95061 209.235 5.95061 209.054 5.996 208.872C5.996 208.781 6.04141 208.69 6.04141 208.599C6.08681 208.417 6.13222 208.28 6.13222 208.144C6.17761 208.053 6.1776 207.962 6.1776 207.871C6.1776 207.826 6.17761 207.78 6.22301 207.735L5.90521 207.598L3.77135 206.734C3.77135 206.734 3.77136 206.097 3.81676 205.006C2.95413 205.552 2.04611 206.234 1.13809 206.961C0.956497 207.098 0.774887 207.28 0.593277 207.416C0.275467 207.644 0.00306702 207.917 -0.314743 208.189C-0.541748 208.371 -0.768753 208.553 -0.950363 208.781C-1.26816 209.054 -1.54057 209.326 -1.85838 209.599C-2.08539 209.827 -2.31239 210.054 -2.5394 210.281C-2.85721 210.554 -3.12961 210.873 -3.44742 211.191C-3.67442 211.418 -3.90143 211.646 -4.12843 211.919C-4.44624 212.237 -4.76405 212.601 -5.08186 212.965C-5.30887 213.192 -5.53587 213.465 -5.76288 213.738C-6.12608 214.147 -6.48929 214.602 -6.85249 215.011C-7.0341 215.239 -7.21571 215.466 -7.39731 215.693C-7.94212 216.376 -8.48694 217.103 -9.03175 217.876C-10.3484 216.057 -10.3484 216.057 -10.3484 216.057L-10.8478 217.876C-10.8478 217.876 -14.9339 216.876 -17.3856 224.107C-17.3856 224.107 -21.6533 213.965 -18.0212 198.593C-16.2051 198.912 -16.2051 198.912 -16.2051 198.912L-16.5229 196.456C-16.5229 196.456 -16.4321 196.365 -16.2959 196.183L-16.2505 196.137C-16.2051 196.047 -16.1143 195.956 -16.0235 195.819C-14.8431 194.227 -11.8466 190.316 -10.1668 189.27C-8.85016 190.907 -8.85014 190.907 -8.85014 190.907V188.133C-8.85014 188.133 -1.81297 181.584 0.457077 179.947C1.0927 182.084 1.90991 182.903 1.90991 182.903L1.5921 178.492L4.49777 177.264C4.58858 173.716 4.90639 168.35 5.6328 162.847C5.4512 162.892 5.22418 162.938 5.04257 163.029C3.68054 160.8 3.68054 160.345 3.68054 160.345V162.801C3.68054 162.801 -0.0423431 163.574 -4.21924 165.257C-4.53705 165.394 -4.90025 165.53 -5.21806 165.667C-5.35426 165.712 -5.53586 165.803 -5.67207 165.894C-5.98987 166.03 -6.26228 166.167 -6.58009 166.303C-6.76169 166.394 -6.98871 166.485 -7.1703 166.576C-7.44272 166.713 -7.71512 166.849 -7.98752 166.985C-8.21452 167.122 -8.44153 167.213 -8.62314 167.349C-8.85014 167.486 -9.12256 167.622 -9.34956 167.759C-9.57657 167.895 -9.80357 168.077 -10.0306 168.213C-10.2576 168.35 -10.4392 168.486 -10.6662 168.623C-10.8932 168.805 -11.1656 168.987 -11.3926 169.168C-11.5742 169.305 -11.7558 169.441 -11.892 169.578C-12.1644 169.805 -12.3914 170.033 -12.6638 170.26C-12.8 170.396 -12.9362 170.487 -13.0271 170.624C-13.3903 170.988 -13.7081 171.351 -14.0259 171.761C-13.7989 168.805 -13.3902 167.713 -13.3902 167.713C-13.3902 167.713 -16.7045 173.216 -16.9315 174.853C-16.9315 174.853 -17.3401 172.579 -17.0223 169.077C-17.1131 169.396 -17.1586 169.578 -17.1586 169.578C-17.1586 169.578 -17.1131 169.396 -17.0223 169.032C-16.5229 163.984 -14.4345 156.343 -7.1703 148.976C-4.71866 149.476 -4.71866 149.476 -4.71866 149.476L-5.30887 148.021C-5.30887 148.021 -5.26347 147.975 -5.17267 147.93C-5.17267 147.93 -5.12726 147.93 -5.12726 147.884C-5.03645 147.793 -4.90025 147.702 -4.71866 147.611C-4.67325 147.611 -4.67325 147.566 -4.62785 147.566C-4.21924 147.293 -3.62903 146.884 -2.85721 146.429C-2.81181 146.429 -2.8118 146.383 -2.8118 146.383C-0.269348 144.792 3.90755 142.472 8.22066 141.199C8.99248 136.514 9.9913 130.921 11.2625 125.463C11.2625 125.418 11.2625 125.418 11.3079 125.372C11.4895 124.644 11.6257 123.962 11.8073 123.235C11.8981 122.916 11.9436 122.598 12.0343 122.28C12.0343 122.234 12.0343 122.189 12.0797 122.189C12.1252 122.098 12.1252 122.007 12.1705 121.916L11.8527 121.688L10.6723 120.824C10.6723 120.824 15.5756 106.271 18.7083 98.9034C18.7083 98.9034 18.7083 98.8579 18.7537 98.8579C18.9807 98.3576 19.2077 97.8573 19.3893 97.4025L17.9819 96.7658L19.8433 93.3094C19.3439 93.5823 18.8899 93.7642 18.4813 93.8552C16.5291 90.3988 16.5291 90.3988 16.5291 90.3988L16.7561 94.8102L13.578 97.9938L10.8993 95.0376L12.1252 98.676C12.1252 98.676 5.95059 105.771 2.77252 110.728C2.59091 111.001 2.40933 111.319 2.27312 111.592C2.22772 111.683 2.1369 111.819 2.09151 111.91C1.9099 112.274 1.7283 112.593 1.54671 112.911C-0.269348 111.865 -0.904953 111.592 -0.904953 111.592L-0.133148 113.775C-0.133148 113.775 -3.22041 119.051 -4.76404 122.598C-4.85484 122.78 -4.90025 122.962 -4.99104 123.144C-5.03645 123.235 -5.08186 123.326 -5.12726 123.462C-5.17267 123.598 -5.21806 123.735 -5.26346 123.871C-5.30885 124.008 -5.35426 124.099 -5.35426 124.19C-5.39967 124.281 -5.44507 124.417 -5.44507 124.508C-5.49046 124.69 -5.53587 124.872 -5.58127 125.054C-9.07715 122.916 -10.4846 122.507 -10.4846 122.507L-8.85014 126.009C-8.85014 126.009 -18.793 133.604 -20.0188 142.518C-20.0188 142.518 -20.0188 142.472 -20.0188 142.381C-20.0188 142.336 -20.0188 142.336 -20.0188 142.29C-20.0188 142.199 -20.0642 142.108 -20.0642 141.926C-20.0642 141.836 -20.0642 141.79 -20.1096 141.654C-20.1096 141.517 -20.155 141.335 -20.155 141.153C-20.155 141.017 -20.2004 140.926 -20.2004 140.79C-20.2004 140.562 -20.2458 140.335 -20.2458 140.107C-20.2458 139.925 -20.2912 139.789 -20.2912 139.607C-20.2912 139.289 -20.3366 138.97 -20.3366 138.607C-20.3366 138.47 -20.3366 138.334 -20.382 138.197C-20.4274 137.697 -20.4274 137.151 -20.4274 136.605C-20.4274 136.424 -20.4274 136.242 -20.4274 136.014C-20.4274 135.605 -20.4274 135.196 -20.4274 134.741C-21.0176 134.513 -21.0176 134.241 -21.0176 133.968ZM69.0127 174.035C69.0127 173.944 69.0127 173.807 69.0127 173.716L68.6495 174.262C68.6495 174.262 68.6495 174.262 68.6495 174.217C68.6949 174.353 68.6949 174.535 68.7403 174.671C68.8765 174.853 68.9673 175.035 69.1035 175.217L69.1489 175.035C69.0581 174.717 69.0581 174.399 69.0127 174.035ZM68.3317 176.991C68.3771 177.036 68.4225 177.127 68.5133 177.173L68.8765 175.945L68.3317 176.991ZM33.3275 323.933C33.3275 324.206 33.3275 324.434 33.3275 324.616C33.3275 324.479 33.3728 324.252 33.4183 324.024L33.3275 323.933ZM29.423 73.5261C29.196 74.2083 29.0143 74.7085 28.8781 75.1178C28.7873 75.3452 28.7419 75.5726 28.6511 75.8L29.2868 74.6176C29.2868 74.6176 29.3322 74.663 29.3776 74.663C29.3776 74.663 29.3776 74.663 29.423 74.7085C29.4684 74.754 29.5138 74.7995 29.6046 74.8904C29.5592 74.4811 29.5138 74.0718 29.4684 73.708C29.423 73.6625 29.423 73.617 29.423 73.5261ZM48.1282 134.286L49.3086 132.467L47.4926 133.058L46.3122 129.465L44.0875 122.825L45.6766 122.007L42.2715 120.188L40.0468 115.367L42.0445 113.548L38.4578 114.73L31.466 99.3127L33.4637 95.9017L30.2402 98.3121L29.7408 97.4025C29.2414 99.0853 28.7873 100.632 28.5149 101.859C28.1517 101.678 27.8793 101.587 27.6069 101.405C27.5615 101.496 27.5615 101.541 27.5161 101.632C27.4253 101.905 27.3345 102.178 27.2437 102.496C27.1983 102.678 27.1529 102.815 27.1075 102.996C25.5185 108.454 23.0214 117.959 23.1122 124.19C22.4766 124.008 21.9318 123.826 21.4778 123.689C21.4324 124.008 21.387 124.372 21.3416 124.735C20.933 128.237 20.3427 133.831 20.0249 139.562C21.3416 139.607 22.7036 139.698 23.8386 139.88C25.6547 142.7 25.6547 142.7 25.6547 142.7L26.2903 140.38C26.2903 140.38 36.2331 140.517 43.1795 143.063C45.1317 146.02 45.6311 146.611 45.6311 146.611L46.1306 143.427C46.1306 143.427 50.1259 145.519 53.6217 147.293C50.7161 136.424 48.1282 134.286 48.1282 134.286ZM42.2715 164.893C42.2261 164.439 42.2261 164.12 42.1807 163.893C42.1353 163.438 42.1353 163.393 42.1353 163.393C42.1353 163.393 42.1353 163.393 42.1807 163.893C42.0899 163.893 41.9537 163.938 41.8629 163.938L41.1818 165.121L32.7372 164.757L32.8734 162.074L31.5114 164.029C31.5114 164.029 28.5603 163.529 25.1099 163.12C23.4754 162.983 21.2508 162.801 19.4801 162.71C19.5709 164.439 19.7071 166.167 19.8433 167.895L25.2915 166.804L28.7873 168.85L27.7885 166.576C27.7885 166.576 34.8257 165.394 40.6824 165.485C43.4065 167.759 43.4065 167.759 43.4065 167.759L43.0433 165.394C43.0433 165.394 47.8558 165.712 53.4401 166.94C53.5309 166.94 53.5763 166.985 53.6671 166.985C54.0303 167.076 54.439 167.167 54.8476 167.258C54.9838 167.304 55.12 167.304 55.2562 167.349C55.7102 167.486 56.1642 167.577 56.6182 167.713C56.709 167.713 56.7544 167.759 56.8452 167.759C57.2538 167.85 57.617 167.986 57.9802 168.122C58.1618 168.168 58.298 168.213 58.4797 168.304C58.7975 168.395 59.1153 168.532 59.4331 168.623C59.5693 168.668 59.7055 168.714 59.8871 168.759C60.2957 168.896 60.7497 169.077 61.1583 169.259C61.2945 169.305 61.4307 169.396 61.5669 169.441C61.7939 169.532 62.0209 169.623 62.2479 169.76C62.1117 169.669 61.9755 169.623 61.8393 169.532C61.7485 169.487 61.6123 169.396 61.4761 169.35C60.9313 169.077 60.3865 168.759 59.7963 168.486C55.5286 166.44 49.7172 164.711 42.2715 164.893ZM57.0722 187.678L54.8022 182.448L53.3493 186.86L47.4926 188.315L46.6754 183.585L45.3587 187.496L33.2821 193.363L31.1482 189.77L30.6488 192.863L26.5627 193.5L24.9283 190.407L24.7467 193.864L24.6104 193.954L21.6594 196.092L22.749 207.917L21.4324 207.962C21.4324 208.326 21.4324 208.69 21.4324 209.099V209.144C21.4324 209.417 21.4324 209.736 21.4778 210.054C21.6594 215.375 22.4766 224.334 25.6547 229.474C24.565 229.565 23.6116 229.656 22.8398 229.746C23.0214 232.794 23.884 241.844 26.9259 247.483C26.0633 247.665 25.2915 247.847 24.6558 247.984C24.8375 248.802 25.0191 249.848 25.2461 250.985C26.5627 257.443 29.0598 268.131 31.7384 272.997C30.9666 273.224 30.331 273.406 29.7408 273.588L30.331 275.817L36.6417 300.375L36.3693 300.421L36.7779 301.876C37.0503 297.192 37.5044 290.37 38.0946 285.231C38.1854 284.458 38.2762 283.73 38.367 283.048C38.367 282.957 38.367 282.911 38.4124 282.82C38.4578 282.639 38.4578 282.411 38.5032 282.229L37.6406 281.956C37.6406 281.956 37.7768 264.538 41.9537 252.759L40.5916 252.85C40.5916 252.85 42.6347 238.979 46.0852 226.017C46.0852 226.017 46.0852 226.017 46.0852 225.972C46.1306 225.881 46.1306 225.79 46.176 225.653C46.3576 225.017 46.5392 224.38 46.6754 223.743C46.7662 223.425 46.857 223.152 46.9478 222.834C46.9478 222.788 46.9932 222.697 46.9932 222.652C47.0386 222.561 47.0386 222.47 47.084 222.379L45.4949 221.196C45.4949 221.196 46.9024 217.467 48.8092 212.828C49.1724 211.919 49.581 210.918 49.9897 209.963C50.1713 209.463 50.3983 209.008 50.5799 208.508C50.6707 208.28 50.7615 208.098 50.8523 207.871C51.1247 207.234 51.3517 206.643 51.6241 206.052C51.6695 205.915 51.7149 205.779 51.8057 205.688C52.1235 205.006 52.3959 204.278 52.7137 203.642C52.7137 203.596 52.7591 203.551 52.7591 203.505C53.0769 202.823 53.3493 202.141 53.6671 201.504C53.7125 201.413 53.7125 201.368 53.7579 201.277C54.0303 200.685 54.3028 200.14 54.5298 199.594C54.5752 199.503 54.6206 199.457 54.6206 199.366C54.8476 198.866 55.0746 198.411 55.3016 198.002L53.8487 197.365L60.4773 186.269L57.0722 187.678ZM42.2715 327.663V327.708C42.3169 327.708 42.3623 327.708 42.4077 327.708C42.3623 327.663 42.3169 327.617 42.2715 327.663ZM34.7349 44.465C34.7349 44.6924 34.7349 44.9198 34.7349 45.1472H35.3705C35.3251 45.1926 35.3251 45.1926 34.7349 44.465Z" fill="#010101" fill-opacity="0.15"/>
</svg>
